<svg xmlns="http://www.w3.org/2000/svg" version="1.1" viewBox="-5.0 -10.0 110.0 135.0">
 <path d="m94.359 58.766c-0.92188-0.92188-2.0312-1.625-3.2031-2.0156-0.92188-0.32812-1.8906-0.5-2.875-0.5-2.0469 0-3.9531 0.73438-5.4688 2.0156v-30.141h4.6875v3.5625c-0.92188 0.54688-1.5625 1.5312-1.5625 2.6875 0 1.7188 1.4062 3.125 3.125 3.125s3.125-1.4062 3.125-3.125c0-1.1562-0.64062-2.1562-1.5625-2.6875v-3.5625h2.4688c1.0156 0 1.9688-0.5 2.5469-1.3281s0.73438-1.8906 0.39062-2.8594l-6.7031-18.75c-0.4375-1.2344-1.625-2.0781-2.9375-2.0781h-10.297c-1.3125 0-2.5 0.82812-2.9375 2.0781l-6.7031 18.75c-0.34375 0.95312-0.1875 2.0156 0.39062 2.8438s1.5469 1.3281 2.5469 1.3281h10.281v17.234c-1.3125-0.98438-2.9219-1.6094-4.6875-1.6094h-18.75c-2.5625 0-4.8281 1.2656-6.25 3.1719-1.4219-1.9219-3.6875-3.1719-6.25-3.1719h-18.75c-4.3125 0-7.8125 3.5-7.8125 7.8125v6.7031c-1.5312-1.2812-3.4219-2.0156-5.4688-2.0156-0.98438 0-1.9531 0.17188-2.8594 0.48438-1.1875 0.40625-2.2969 1.1094-3.2188 2.0156-1.625 1.6094-2.5312 3.7656-2.5312 6.0781 0 2.9844 1.5156 5.7188 4.0469 7.2969 0.39062 0.25 0.64062 0.73438 0.64062 1.2656v12.547c0 2.5781 2.1094 4.6875 4.6875 4.6875h1.5625v4.6875c0 0.85938 0.70312 1.5625 1.5625 1.5625h6.25c0.85938 0 1.5625-0.70312 1.5625-1.5625v-4.6875h53.125v4.6875c0 0.85938 0.70312 1.5625 1.5625 1.5625h6.25c0.85938 0 1.5625-0.70312 1.5625-1.5625v-4.6875h1.5625c2.5781 0 4.6875-2.1094 4.6875-4.6875v-12.547c0-0.53125 0.25-1.0156 0.64062-1.2656 2.5312-1.5781 4.0469-4.2969 4.0469-7.2969 0-2.3125-0.89062-4.4688-2.5156-6.0781zm-18.266-52.516h10.297l6.7031 18.75h-23.703zm2.0312 81.25h-57.812v-6.25h59.375v6.25zm-53.125-15.625h50c2.5781 0 4.6875 2.1094 4.6875 4.6875v1.5625h-59.375v-1.5625c0-2.5781 2.1094-4.6875 4.6875-4.6875zm31.25-25h18.75c2.5781 0 4.6875 2.1094 4.6875 4.6875v18.797c-1.3125-0.98438-2.9219-1.6094-4.6875-1.6094h-23.438v-17.188c0-2.5781 2.1094-4.6875 4.6875-4.6875zm-35.938 4.6875c0-2.5781 2.1094-4.6875 4.6875-4.6875h18.75c2.5781 0 4.6875 2.1094 4.6875 4.6875v17.188h-23.438c-1.7656 0-3.375 0.60938-4.6875 1.6094zm-9.375 34.375v-12.547c0-1.5938-0.8125-3.0938-2.1094-3.9219-1.6094-1-2.5781-2.7344-2.5781-4.6406 0-1.4688 0.5625-2.8438 1.6094-3.8594 0.59375-0.57812 1.2812-1.0312 2.0469-1.2969 0.57812-0.20312 1.1875-0.3125 1.8125-0.3125 1.4688 0 2.8438 0.5625 3.875 1.6094 1.0312 1.0156 1.5938 2.3906 1.5938 3.8594v22.656h-4.6875c-0.85938 0-1.5625-0.70312-1.5625-1.5625zm9.375 7.8125h-3.125v-3.125h3.125zm62.5 0h-3.125v-3.125h3.125zm8.3594-24.266c-1.3125 0.8125-2.1094 2.3125-2.1094 3.9062v12.547c0 0.85938-0.70312 1.5625-1.5625 1.5625h-4.6875v-22.656c0-1.4688 0.5625-2.8438 1.6094-3.875 1.4531-1.4688 3.7031-2 5.6875-1.2812 0.73438 0.25 1.4375 0.70312 2.0312 1.2969 1.0312 1.0156 1.5938 2.3906 1.5938 3.8594 0 1.9062-0.95312 3.6406-2.5781 4.6406z"/>
 <path d="m7.8125 37.5h37.5c1.4219 0 2.6719-0.64062 3.5312-1.6406 0.25-0.0625 0.5-0.17188 0.70312-0.375 0.45312-0.45312 0.5625-1.1094 0.34375-1.6719 0.0625-0.32812 0.10938-0.65625 0.10938-1v-25c0-2.5781-2.1094-4.6875-4.6875-4.6875h-37.5c-2.5781 0-4.6875 2.1094-4.6875 4.6875v25c0 2.5781 2.1094 4.6875 4.6875 4.6875zm0-3.125c-0.85938 0-1.5625-0.70312-1.5625-1.5625v-2.0156l13.516-13.516 10.375 10.375c0.60938 0.60938 1.5938 0.60938 2.2031 0l3.5781-3.5781 10.094 10.094c-0.21875 0.10938-0.45312 0.20312-0.71875 0.20312zm0-28.125h37.5c0.85938 0 1.5625 0.70312 1.5625 1.5625v22.797l-9.8281-9.8281c-0.60938-0.60938-1.5938-0.60938-2.2031 0l-3.5781 3.5781-10.375-10.375c-0.60938-0.60938-1.5938-0.60938-2.2031 0l-12.406 12.406v-18.578c0-0.85938 0.70312-1.5625 1.5625-1.5625z"/>
 <path d="m39.062 14.062c0 4.168-6.25 4.168-6.25 0s6.25-4.168 6.25 0"/>
<text x="0.0" y="117.5" font-size="5.0" font-weight="bold" font-family="Arbeit Regular, Helvetica, Arial-Unicode, Arial, Sans-serif" fill="#000000">Created by Yosua Bungaran</text><text x="0.0" y="122.5" font-size="5.0" font-weight="bold" font-family="Arbeit Regular, Helvetica, Arial-Unicode, Arial, Sans-serif" fill="#000000">from Noun Project</text></svg>