<svg xmlns="http://www.w3.org/2000/svg" version="1.1" viewBox="-5.0 -10.0 110.0 135.0">
 <path d="m85.676 16.973c-2.2656 0-4.5352 0.88672-6.2422 2.6367l-41.012 41.836-17.844-18.203c-3.1406-3.2305-8.0234-3.1328-11.473-0.43359-0.30859 0.24219-0.74219 0.14453-1.0234 0.43359-3.4023 3.4961-3.375 9.1523 0.054688 12.621h-0.011719l24.086 24.57-0.003907 0.003906h0.011719c3.4102 3.4531 8.9922 3.4531 12.402 0h0.011718l47.242-48.203c3.4258-3.4688 3.4375-9.1172 0.042969-12.613-1.7109-1.7578-3.9727-2.6484-6.2422-2.6484zm0 2.8281c1.5156 0 3.0273 0.60156 4.1953 1.8047 2.3281 2.3906 2.3125 6.2539-0.03125 8.625l-47.254 48.203c-2.332 2.3594-6 2.3594-8.332 0l-24.086-24.57h-0.011719c-2.3438-2.3711-2.3477-6.2383-0.019531-8.625 2.3398-2.4023 6.0547-2.4023 8.3945 0v-0.003906c0.003906 0.003906 0.007812 0.007813 0.011719 0.011719l18.855 19.234c0.26562 0.27734 0.63672 0.43359 1.0195 0.43359 0.38672 0 0.75781-0.15625 1.0234-0.43359l42.023-42.867v-0.011719c1.168-1.2031 2.6914-1.8047 4.207-1.8047z"/>
<text x="0.0" y="117.5" font-size="5.0" font-weight="bold" font-family="Arbeit Regular, Helvetica, Arial-Unicode, Arial, Sans-serif" fill="#000000">Created by Alzam</text><text x="0.0" y="122.5" font-size="5.0" font-weight="bold" font-family="Arbeit Regular, Helvetica, Arial-Unicode, Arial, Sans-serif" fill="#000000">from Noun Project</text></svg>