<svg xmlns="http://www.w3.org/2000/svg" xmlns:xlink="http://www.w3.org/1999/xlink" version="1.1" x="0px" y="0px" viewBox="0 0 512 640" style="enable-background:new 0 0 512 512;" xml:space="preserve"><g><g><g><g><path d="M274.151,386.063c-18.851,0-37.44-2.291-47.427-3.521c-1.496-0.185-2.767-0.342-3.774-0.457      c-5.487-0.627-9.428-5.582-8.801-11.07c0.627-5.486,5.587-9.421,11.07-8.801c1.055,0.121,2.385,0.285,3.951,0.479      c9.562,1.178,27.357,3.371,44.98,3.371c13.558,0,24.097-1.297,31.323-3.855c8.981-3.18,8.981-6.833,8.981-8.393      c0-1.239-0.25-2.684-0.742-4.296c-1.614-5.282,1.359-10.872,6.642-12.485c5.273-1.614,10.871,1.358,12.485,6.641      c1.072,3.508,1.615,6.919,1.615,10.141c0,7.226-2.898,20.375-22.307,27.246C302.642,384.427,290.212,386.063,274.151,386.063z"/></g><g><g><path d="M148.511,472.738c-1.519,0-3.039-0.346-4.44-1.041c-2.957-1.466-5.001-4.297-5.461-7.564l-17.646-125.241       c-0.541-3.843,1.19-7.652,4.441-9.772c10.279-6.701,19.155-11.344,27.135-14.194c0.617-0.224,1.306-0.46,2.023-0.692       c5.255-1.704,10.895,1.176,12.597,6.429c1.703,5.253-1.175,10.894-6.429,12.597c-0.495,0.16-0.97,0.322-1.424,0.487       c-5.103,1.822-11.01,4.761-17.636,8.767l14.774,104.862c19.214-9.101,36.72-13.391,54.254-13.391       c12.484,0,23.689,2.112,34.526,4.154c11.162,2.104,21.706,4.091,34.021,4.091c2.575,0,5.181-0.09,7.744-0.27       c5.499-0.389,10.288,3.767,10.674,9.276c0.386,5.509-3.768,10.288-9.277,10.675c-3.025,0.211-6.101,0.318-9.141,0.318       c-14.183,0-26.151-2.256-37.726-4.437c-10.391-1.958-20.205-3.809-30.821-3.809c-17.795,0-36.003,5.554-57.303,17.479       C151.882,472.312,150.197,472.738,148.511,472.738z M334.79,446.681c-3.464,0-6.831-1.802-8.681-5.021       c-2.751-4.789-1.1-10.9,3.689-13.652c23.693-13.611,53.237-35.77,77.103-57.83c29.373-27.15,39.795-44.479,39.795-51.068       c0-0.266-0.024-0.408-0.035-0.457c-2.072-9.644-18.114-10.133-21.309-10.133c-4.117,0-8.301,0.539-11.479,1.479       c-25.869,7.525-62.734,35.811-82.079,57.707c-3.068,3.473-8.117,4.381-12.203,2.201c-4.086-2.181-6.14-6.883-4.963-11.363       c0.15-0.571,0.227-1.229,0.227-1.955c0-1.395-0.273-2.994-0.813-4.755c-0.01-0.032-0.02-0.064-0.029-0.097       c-4.542-15.367-40.192-25.692-88.712-25.692c-5.894,0-11.872,0.153-17.769,0.456c-5.525,0.281-10.216-3.959-10.499-9.475       s3.958-10.216,9.474-10.499c6.237-0.32,12.56-0.482,18.794-0.482c33.739,0,90.337,4.599,105.521,34.11       c22.392-20.928,53.355-42.346,77.424-49.348c4.972-1.471,11.063-2.287,17.107-2.287c21.768,0,37.427,9.943,40.866,25.949       c0.318,1.493,0.478,3.049,0.478,4.641c0,15.283-15.551,37.407-46.219,65.756c-24.888,23.004-55.816,46.181-80.716,60.484       C338.191,446.252,336.479,446.681,334.79,446.681z"/></g><g><path d="M83.803,500.389c-21.229,0-38.499-17.278-38.499-38.516c0-0.964,0.037-1.944,0.108-2.914l8.36-112.178       c1.337-17.953,15.247-32.807,33.073-35.319l39.566-5.575c5.471-0.768,10.526,3.039,11.298,8.508l17.302,122.801       c0.771,5.469-3.039,10.526-8.508,11.297c-5.465,0.769-10.526-3.039-11.297-8.508L119.3,327.087l-29.663,4.179       c-8.58,1.21-15.276,8.359-15.92,17.002l-8.359,112.174c-0.035,0.477-0.054,0.959-0.054,1.432       c0,10.209,8.299,18.516,18.499,18.516c0.793,0,1.602-0.053,2.403-0.154l57.722-7.323c5.482-0.696,10.484,3.183,11.18,8.661       c0.695,5.479-3.183,10.484-8.662,11.18l-57.724,7.324C87.087,500.283,85.433,500.389,83.803,500.389z"/></g></g><g><path d="M385.292,281.611h-130c-5.523,0-10-4.477-10-10v-170c0-5.523,4.477-10,10-10c5.522,0,10,4.477,10,10v160h110v-50      c0-5.523,4.478-10,10-10s10,4.477,10,10v60C395.292,277.135,390.814,281.611,385.292,281.611z M385.292,171.612      c-5.522,0-10-4.477-10-10v-130h-110v20c0,5.523-4.478,10-10,10c-5.523,0-10-4.477-10-10v-30c0-5.523,4.477-10,10-10h130      c5.522,0,10,4.477,10,10v140C395.292,167.135,390.814,171.612,385.292,171.612z"/></g><g><path d="M255.292,281.611h-120c-5.523,0-10-4.477-10-10v-150c0-5.523,4.477-10,10-10h40c5.522,0,10,4.477,10,10s-4.478,10-10,10      h-30v130h100v-130h-20c-5.523,0-10-4.477-10-10s4.477-10,10-10h30c5.522,0,10,4.477,10,10v150      C265.292,277.135,260.814,281.611,255.292,281.611z"/></g><g><path d="M255.292,131.612h-120c-3.864,0-7.383-2.226-9.037-5.718s-1.149-7.624,1.297-10.615l32.728-40      c1.899-2.321,4.74-3.667,7.74-3.667h54.545c2.999,0,5.84,1.346,7.739,3.667l32.728,40c2.447,2.991,2.952,7.123,1.298,10.615      C262.674,129.386,259.156,131.612,255.292,131.612z M156.395,111.612h77.795l-16.364-20h-45.067L156.395,111.612z"/></g><g><path d="M405.292,281.611h-300c-5.523,0-10-4.477-10-10c0-5.522,4.477-10,10-10h300c5.522,0,10,4.478,10,10      C415.292,277.135,410.814,281.611,405.292,281.611z"/></g></g><circle cx="101.651" cy="456.72" r="10.495"/><rect x="165.292" y="141.612" width="20" height="20"/><rect x="205.292" y="141.612" width="20" height="20"/><rect x="165.292" y="171.612" width="20" height="20"/><rect x="205.292" y="171.612" width="20" height="20"/><rect x="165.292" y="201.612" width="20" height="20"/><rect x="205.292" y="201.612" width="20" height="20"/><rect x="165.292" y="231.612" width="20" height="20"/><rect x="205.292" y="231.612" width="20" height="20"/><rect x="285.292" y="51.613" width="20" height="49.999"/><rect x="335.292" y="51.613" width="20" height="49.999"/><rect x="285.292" y="121.612" width="20" height="50"/><rect x="335.292" y="121.612" width="20" height="50"/><rect x="285.292" y="191.612" width="20" height="50"/><rect x="335.292" y="191.612" width="20" height="50"/></g></g><text x="0" y="527" fill="#000000" font-size="5px" font-weight="bold" font-family="'Helvetica Neue', Helvetica, Arial-Unicode, Arial, Sans-serif">Created by Flatart</text><text x="0" y="532" fill="#000000" font-size="5px" font-weight="bold" font-family="'Helvetica Neue', Helvetica, Arial-Unicode, Arial, Sans-serif">from the Noun Project</text></svg>