<svg xmlns="http://www.w3.org/2000/svg" version="1.1" viewBox="-5.0 -10.0 110.0 135.0">
 <path d="m7.6055 66.801 18.035 25.578 8.9961-6.3438-18.035-25.578zm60.172-57.898c-1.0547-1.0547-2.5117-1.707-4.1211-1.707s-3.0664 0.65234-4.1211 1.707c-1.0547 1.0547-1.707 2.5117-1.707 4.1211 0 1.6094 0.65234 3.0664 1.707 4.1211 1.0547 1.0547 2.5117 1.707 4.1211 1.707s3.0664-0.65234 4.1211-1.707c1.0547-1.0547 1.707-2.5117 1.707-4.1211 0-1.6094-0.65234-3.0664-1.707-4.1211zm-4.1211-3.9023c2.2148 0 4.2227 0.89844 5.6719 2.3516 1.4531 1.4531 2.3516 3.457 2.3516 5.6719 0 2.2148-0.89844 4.2227-2.3516 5.6719-1.4531 1.4531-3.457 2.3516-5.6719 2.3516s-4.2227-0.89844-5.6719-2.3516c-1.4531-1.4531-2.3516-3.457-2.3516-5.6719 0-2.2148 0.89844-4.2227 2.3516-5.6719 1.4531-1.4531 3.457-2.3516 5.6719-2.3516zm-15.77 11.879c-0.80078-0.80078-1.9102-1.2969-3.1367-1.2969-1.2227 0-2.332 0.49609-3.1367 1.2969-0.80078 0.80078-1.2969 1.9102-1.2969 3.1367s0.49609 2.332 1.2969 3.1367c0.80078 0.80078 1.9102 1.2969 3.1367 1.2969s2.332-0.49609 3.1367-1.2969c0.80078-0.80078 1.2969-1.9102 1.2969-3.1367s-0.49609-2.332-1.2969-3.1367zm-3.1328-3.4961c1.8281 0 3.4883 0.74219 4.6875 1.9414 1.1992 1.1992 1.9414 2.8555 1.9414 4.6875 0 1.8281-0.74219 3.4883-1.9414 4.6875-1.1992 1.1992-2.8555 1.9414-4.6875 1.9414-1.8281 0-3.4883-0.74219-4.6875-1.9414-1.1992-1.1992-1.9414-2.8555-1.9414-4.6875 0-1.8281 0.74219-3.4883 1.9414-4.6875 1.1992-1.1992 2.8555-1.9414 4.6875-1.9414zm44.453 42.656c0.28906-0.003906 0.57812 0.027344 0.85938 0.089844 0.87891 0.19531 1.6797 0.71875 2.2031 1.5469 0.53125 0.83984 0.67188 1.8203 0.46875 2.7227-0.19922 0.89844-0.74609 1.7227-1.5859 2.2539-0.015625 0.011718-0.035156 0.023437-0.050782 0.035156l-27.457 17.734c-0.035156 0.023437-0.066406 0.046875-0.097656 0.070313-0.90625 0.64453-1.8555 1.1016-2.8555 1.375-1.0195 0.27734-2.0938 0.35937-3.2266 0.25391l-21.355-2.0039c-0.25391-0.023438-0.49609 0.042968-0.69531 0.17187 0 0-1.4688 0.95703-1.4688 0.95703l-12.543-17.789 14.68-5.9219c0.97266-0.39062 1.9258-0.61328 2.8867-0.66797 0.95703-0.054688 1.9297 0.0625 2.9375 0.34375l23.742 6.6523c0.95312 0.26562 1.7109 0.90234 2.1641 1.707 0.44141 0.78906 0.59375 1.7383 0.35156 2.6719-0.44531 0.98047-1.1406 1.7891-1.9766 2.2578-0.73828 0.41406-1.5938 0.55859-2.4883 0.30859l-17.344-4.8594c-0.58203-0.16406-1.1875 0.17578-1.3516 0.75781-0.16406 0.58203 0.17578 1.1875 0.75781 1.3516l17.344 4.8594c1.4961 0.42188 2.9258 0.17969 4.1523-0.50781 1.2734-0.71484 2.3086-1.9219 2.9453-3.3711 0.019531-0.046874 0.035156-0.09375 0.050781-0.14062 0.23438-0.83594 0.26953-1.6836 0.14062-2.4883l16.855-9.832c0.55469-0.32422 1.1602-0.5 1.7617-0.53516 0.019531 0 0.039062 0.003906 0.058593 0.003906 0.046876 0 0.089844-0.003906 0.13672-0.007813zm0.96484-6.4531v4.3398c0.12109 0.019531 0.24609 0.042969 0.36719 0.070313 1.4336 0.32031 2.7344 1.1719 3.582 2.5078 0.85156 1.3438 1.0781 2.918 0.75391 4.3672-0.32422 1.4531-1.1992 2.7812-2.5469 3.6367l-0.035156 0.023438-27.469 17.742c-1.1328 0.80859-2.3125 1.3789-3.5586 1.7148-1.2617 0.34375-2.5898 0.44531-3.9961 0.31641l-20.977-1.9688-1.082 0.70703 1.8516 2.6289c0.34766 0.49609 0.23047 1.1797-0.26562 1.5273l-10.789 7.6055c-0.49609 0.34766-1.1797 0.23047-1.5273-0.26563l-19.297-27.367c-0.34766-0.49609-0.23047-1.1797 0.26562-1.5273l10.789-7.6055c0.49609-0.34766 1.1797-0.23047 1.5273 0.26563l2.3438 3.3203 15.16-6.1172c0.62891-0.25391 1.2539-0.44922 1.8789-0.58594v-5.3281h-0.625c-0.99609 0-1.9023-0.40625-2.5586-1.0625s-1.0625-1.5625-1.0625-2.5586v-12.059c0-1.9609 0.80078-3.7422 2.0938-5.0352 1.2891-1.2891 3.0742-2.0938 5.0352-2.0938h9.4531c0.125 0 0.26562 0.003906 0.41406 0.015625 0.43359-0.92969 1.0234-1.7695 1.7383-2.4844 1.5664-1.5664 3.7266-2.5391 6.1055-2.5391h11.836c2.3789 0 4.5391 0.97266 6.1055 2.5391 0.71484 0.71484 1.3086 1.5586 1.7383 2.4844 0.14844-0.011719 0.28516-0.015625 0.41406-0.015625h9.4531c1.9609 0 3.7422 0.80078 5.0352 2.0938 1.2891 1.2891 2.0938 3.0742 2.0938 5.0352v12.059c0 0.99609-0.40625 1.9023-1.0625 2.5586s-1.5625 1.0625-2.5586 1.0625h-0.625zm-4.4727-32.707c-0.80078-0.80078-1.9102-1.2969-3.1367-1.2969-1.2227 0-2.332 0.49609-3.1367 1.2969-0.80078 0.80078-1.2969 1.9102-1.2969 3.1367s0.49609 2.332 1.2969 3.1367c0.80078 0.80078 1.9102 1.2969 3.1367 1.2969s2.332-0.49609 3.1367-1.2969c0.80078-0.80078 1.2969-1.9102 1.2969-3.1367s-0.49609-2.332-1.2969-3.1367zm-3.1367-3.4961c-1.8281 0-3.4883 0.74219-4.6875 1.9414s-1.9414 2.8555-1.9414 4.6875c0 1.8281 0.74219 3.4883 1.9414 4.6875s2.8555 1.9414 4.6875 1.9414c1.8281 0 3.4883-0.74219 4.6875-1.9414s1.9414-2.8555 1.9414-4.6875c0-1.8281-0.74219-3.4883-1.9414-4.6875s-2.8555-1.9414-4.6875-1.9414zm-28.152 39.645c-0.074218-0.0625-0.14844-0.12109-0.22266-0.18359-2-1.6484-3.6719-3.3633-4.3945-5-0.21484-0.32422-0.38672-0.68359-0.50781-1.0703-0.12891-0.40234-0.19531-0.82813-0.19531-1.2656v-15.098c0-0.49219 0.039062-0.97266 0.12109-1.4414h-9.1875c-1.3555 0-2.5898 0.55469-3.4805 1.4492-0.89453 0.89453-1.4492 2.1289-1.4492 3.4805v12.059c0 0.39062 0.16016 0.74609 0.42188 1.0078 0.25781 0.25781 0.61328 0.42188 1.0078 0.42188h0.625v-11.098c0-0.60547 0.49219-1.0977 1.0977-1.0977 0.60547 0 1.0977 0.49219 1.0977 1.0977v18.375c1.0391-0.007812 2.0859 0.13672 3.1562 0.4375l11.914 3.3398v-5.4141zm16.297 1.6836c-1.3828 1.0117-2.8008 1.9727-4.0664 2.832l-0.019531 0.015625c-0.83984 0.57031-1.6094 1.0938-2.3125 1.5938-0.37109 0.27734-0.89062 0.29688-1.2891 0.015625-0.70312-0.50391-1.4766-1.0273-2.3203-1.6016l-0.03125-0.023437c-1.2656-0.85938-2.6797-1.8203-4.0664-2.832v4.3438l9.6328 2.6992c1.4688 0.41016 2.6484 1.3594 3.3867 2.5742l1.082-0.63281v-8.9844zm6.8125-6.8672c-0.72266 1.6367-2.3945 3.3516-4.3945 5-0.074219 0.0625-0.14844 0.12109-0.22266 0.18359v9.3867l13.25-7.7266c0.57812-0.33594 1.1914-0.57031 1.8203-0.70312v-17.691c0-0.60547 0.49219-1.0977 1.0977-1.0977 0.60547 0 1.0977 0.49219 1.0977 1.0977v11.098h0.625c0.39062 0 0.74609-0.16016 1.0078-0.42188 0.25781-0.25781 0.42188-0.61328 0.42188-1.0078v-12.059c0-1.3555-0.55469-2.5898-1.4492-3.4805-0.89453-0.89453-2.1289-1.4492-3.4805-1.4492h-9.1875c0.078125 0.46875 0.12109 0.94922 0.12109 1.4414v15.098c0 0.4375-0.066406 0.86328-0.19531 1.2656-0.12109 0.38281-0.29297 0.74219-0.50781 1.0703zm-15.57-12.215c0.59375 0.23438 1.168 0.53125 1.707 0.88672 0.53125-0.34766 1.1016-0.64453 1.7031-0.88281 0.69531-0.27734 1.4219-0.46875 2.1602-0.57422 0.72656-0.10156 1.4727-0.11719 2.2227-0.042969 0.32031 0.03125 0.64453 0.082031 0.96875 0.14844v-1.7656c0-0.60547 0.49219-1.0977 1.0977-1.0977 0.60547 0 1.0977 0.49219 1.0977 1.0977v2.5117c0.80078 0.38672 1.5273 0.87891 2.168 1.4492 0.34375 0.30859 0.66406 0.64062 0.95312 0.99219v-7.9414c0-1.7734-0.72656-3.3867-1.8945-4.5547-1.1719-1.1719-2.7812-1.8945-4.5547-1.8945h-11.836c-1.7734 0-3.3867 0.72656-4.5547 1.8945-1.1719 1.1719-1.8945 2.7812-1.8945 4.5547v7.9414c0.29297-0.35156 0.60938-0.68359 0.95312-0.99219 0.64062-0.57422 1.3672-1.0625 2.168-1.4492v-2.5117c0-0.60547 0.49219-1.0977 1.0977-1.0977s1.0977 0.49219 1.0977 1.0977v1.7656c0.32031-0.066406 0.64453-0.11719 0.96875-0.14844 0.75-0.074219 1.4961-0.058594 2.2227 0.042969 0.74609 0.10547 1.4688 0.29688 2.1523 0.56641zm0.69922 2.8516c-0.46484-0.32812-0.97266-0.60156-1.5078-0.8125-0.53516-0.21094-1.0898-0.35938-1.6484-0.4375-0.5625-0.078125-1.1328-0.09375-1.707-0.035157-0.55469 0.054688-1.1172 0.17969-1.6719 0.37109-0.046875 0.015625-0.089843 0.03125-0.13672 0.050782-0.050781 0.023437-0.10156 0.042968-0.15625 0.058593-0.80078 0.32031-1.5156 0.76953-2.1211 1.3125-0.71094 0.63672-1.2812 1.4023-1.6875 2.2461s-0.64844 1.7695-0.69922 2.7266c-0.050781 0.91797 0.074219 1.8594 0.39844 2.7812 0.011718 0.027343 0.019531 0.058593 0.03125 0.085937 0.019531 0.039063 0.035156 0.082031 0.050781 0.125 0.53906 1.2617 2.0039 2.7305 3.7812 4.1992 0.17578 0.14453 0.35547 0.28906 0.53516 0.43359 0.054687 0.035156 0.10156 0.074218 0.14844 0.11719 1.8281 1.4414 3.8828 2.8359 5.6367 4.0273l0.03125 0.023437c0.62891 0.42578 1.2188 0.82812 1.7266 1.1797 0.51172-0.35156 1.1055-0.75781 1.7383-1.1875l0.019531-0.015625c1.7578-1.1914 3.8125-2.5898 5.6367-4.0312 0.046875-0.042969 0.09375-0.082031 0.14453-0.11719 0.18359-0.14453 0.35938-0.28906 0.53516-0.43359 1.7812-1.4648 3.2422-2.9336 3.7812-4.1992 0.015626-0.042969 0.03125-0.085938 0.050782-0.125 0.011718-0.027344 0.023437-0.058594 0.03125-0.085938v-0.003906c0.32422-0.92188 0.44922-1.8633 0.39844-2.7773-0.054687-0.95312-0.29688-1.8828-0.69922-2.7266-0.40625-0.84375-0.97656-1.6094-1.6875-2.2461-0.60937-0.54688-1.3203-0.99219-2.1211-1.3125-0.054688-0.015625-0.10547-0.035156-0.15625-0.058594-0.046875-0.015625-0.089844-0.03125-0.13672-0.050781l-0.003906-0.003906c-0.55469-0.19141-1.1094-0.31641-1.6641-0.37109-0.57422-0.058594-1.1445-0.042969-1.707 0.035156-0.57422 0.078125-1.1289 0.22656-1.6523 0.4375-0.52734 0.21094-1.0352 0.48438-1.5117 0.82031-0.30469 0.21484-0.66016 0.31641-1.0117 0.3125-0.35547-0.003907-0.70312-0.11328-0.99219-0.32031z" fill-rule="evenodd"/>
<text x="0.0" y="117.5" font-size="5.0" font-weight="bold" font-family="Arbeit Regular, Helvetica, Arial-Unicode, Arial, Sans-serif" fill="#000000">Created by Good Wife</text><text x="0.0" y="122.5" font-size="5.0" font-weight="bold" font-family="Arbeit Regular, Helvetica, Arial-Unicode, Arial, Sans-serif" fill="#000000">from Noun Project</text></svg>