<svg xmlns="http://www.w3.org/2000/svg" version="1.1" viewBox="-5.0 -10.0 110.0 135.0">
 <path d="m64.133 48.637-3.6836-3.6836-1.3164 2.1484c-0.24219 0.39844-0.39062 0.8125-0.44141 1.2305-0.050781 0.42969-0.007812 0.86719 0.13281 1.3086l2.25 7.043c0.12891 0.40234 0.011719 0.82422-0.26953 1.1016l0.003906 0.003906-7.1211 7.1211 10.742 10.742 10.004-10.004c0.16406-0.16406 0.37109-0.26563 0.58594-0.30469l5.6641-1.2422c0.30859-0.066406 0.57812-0.16406 0.81641-0.29687 0.23438-0.12891 0.46484-0.30469 0.6875-0.53125l9.9961-9.9961c0.65234-0.65234 0.72266-1.4062 0.46094-2.0195-0.10938-0.25391-0.27344-0.48828-0.47656-0.69531-0.20312-0.20312-0.44141-0.37109-0.69531-0.47656-0.61328-0.26172-1.3633-0.19141-2.0156 0.46094l-2.5859 2.5859c-0.42969 0.42969-1.1211 0.42969-1.5508 0-0.42969-0.42969-0.42969-1.1211 0-1.5508l3.9375-3.9375c0.65234-0.65234 0.72266-1.4062 0.46094-2.0195-0.10938-0.25391-0.27344-0.48828-0.47656-0.69531-0.20313-0.20313-0.44141-0.37109-0.69531-0.47656-0.61328-0.26172-1.3672-0.19141-2.0195 0.46094l-3.7461 3.7461c-0.42969 0.42969-1.1211 0.42969-1.5508 0-0.42969-0.42969-0.42969-1.1211 0-1.5508l3.9375-3.9375c0.65234-0.65234 0.72266-1.4062 0.46094-2.0195-0.10938-0.25391-0.27344-0.48828-0.47656-0.69531-0.20312-0.20312-0.44141-0.37109-0.69531-0.47656-0.61328-0.26172-1.3672-0.19141-2.0195 0.46094l-3.7461 3.7461c-0.42969 0.42969-1.1211 0.42969-1.5508 0s-0.42969-1.1211 0-1.5508l3.9375-3.9375c0.65234-0.65234 0.72266-1.4062 0.46094-2.0195-0.10937-0.25391-0.27344-0.48828-0.47656-0.69531-0.20312-0.20312-0.44141-0.37109-0.69531-0.47656-0.61328-0.26172-1.3672-0.19141-2.0195 0.46094l-12.672 12.672c-0.42969 0.42969-1.1211 0.42969-1.5508 0zm-15.496-12.77c0.42969-0.42969 0.42969-1.1211 0-1.5508l-12.672-12.672c-0.65234-0.65234-0.72266-1.4062-0.46094-2.0195 0.10938-0.25391 0.27344-0.48828 0.47656-0.69531 0.20703-0.20313 0.44141-0.37109 0.69531-0.47656 0.61328-0.26172 1.3672-0.19141 2.0195 0.46094l3.9375 3.9375c0.42969 0.42969 1.1211 0.42969 1.5508 0 0.42969-0.42969 0.42969-1.1211 0-1.5508l-3.7461-3.7461c-0.65234-0.65234-0.72266-1.4062-0.46094-2.0195 0.10938-0.25391 0.27344-0.48828 0.47656-0.69531 0.20312-0.20312 0.44141-0.37109 0.69531-0.47656 0.61328-0.26172 1.3672-0.19141 2.0195 0.46094l3.9375 3.9375c0.42969 0.42969 1.1211 0.42969 1.5508 0 0.42969-0.42969 0.42969-1.1211 0-1.5508l-3.7461-3.7461c-0.65234-0.65234-0.72266-1.4062-0.46094-2.0195 0.10938-0.25391 0.27344-0.48828 0.47656-0.69531 0.20312-0.20312 0.44141-0.37109 0.69531-0.47656 0.61328-0.26172 1.3672-0.19141 2.0195 0.46094l3.9375 3.9375c0.42969 0.42969 1.1211 0.42969 1.5508 0 0.42969-0.42969 0.42969-1.1211 0-1.5508l-2.582-2.582c-0.65234-0.65234-0.72266-1.4062-0.46094-2.0195 0.10937-0.25391 0.27344-0.48828 0.47656-0.69531 0.20312-0.20312 0.44141-0.37109 0.69531-0.47656 0.61328-0.26172 1.3672-0.19141 2.0195 0.46094l9.9961 9.9961c0.22656 0.22656 0.40234 0.45312 0.53125 0.6875 0.13281 0.23828 0.22656 0.51172 0.29687 0.81641l1.2422 5.6641c0.039062 0.21484 0.14062 0.41797 0.30469 0.58594l10.004 10.004-10.742 10.742-7.1211-7.1211-0.003906 0.003906c-0.27734-0.27734-0.69922-0.39453-1.1016-0.26953l-7.043 2.25c-0.44141 0.14062-0.88281 0.18359-1.3086 0.13281-0.42188-0.050781-0.83594-0.19922-1.2305-0.44141l-2.1484-1.3164 3.6836-3.6836zm-7.4961 20.773 1.5938-2.5977c0.41016-0.67188 0.66016-1.3828 0.75-2.1133 0.089844-0.72656 0.011719-1.4727-0.22656-2.2266l-2.0469-6.4062 2.1523-2.1523 2.5977 1.5938c0.67187 0.41016 1.3828 0.66016 2.1133 0.75 0.72656 0.089844 1.4727 0.011719 2.2266-0.22656l6.4062-2.0469 2.1523 2.1523-1.5938 2.5977c-0.41016 0.67188-0.66016 1.3828-0.75 2.1133-0.089844 0.72656-0.011719 1.4727 0.22656 2.2266l2.0469 6.4062-2.1523 2.1523-2.5977-1.5938c-0.67187-0.41016-1.3828-0.66016-2.1133-0.75-0.72656-0.089843-1.4727-0.011719-2.2266 0.22656l-6.4062 2.0469zm-5.2734-5.2773 3.6836 3.6836 1.3164-2.1484c0.24219-0.39844 0.39062-0.8125 0.44141-1.2305 0.050781-0.42969 0.007812-0.86719-0.13281-1.3086l-2.25-7.043c-0.12891-0.40234-0.011719-0.82422 0.26953-1.1016l-0.003906-0.003906 7.1211-7.1211-10.742-10.742-10.004 10.004c-0.16406 0.16406-0.37109 0.26563-0.58594 0.30469l-5.6641 1.2422c-0.30859 0.066406-0.57812 0.16406-0.81641 0.29687-0.23438 0.12891-0.46484 0.30469-0.6875 0.53125l-9.9961 9.9961c-0.65234 0.65234-0.72266 1.4062-0.46094 2.0195 0.10938 0.25391 0.27344 0.48828 0.47656 0.69531 0.20312 0.20312 0.44141 0.37109 0.69531 0.47656 0.61328 0.26172 1.3672 0.19141 2.0195-0.46094l2.5859-2.5859c0.42969-0.42969 1.1211-0.42969 1.5508 0 0.42969 0.42969 0.42969 1.1211 0 1.5508l-3.9414 3.9414c-0.65234 0.65234-0.72266 1.4062-0.46094 2.0195 0.10938 0.25391 0.27344 0.48828 0.47656 0.69531 0.20313 0.20312 0.44141 0.37109 0.69531 0.47656 0.61328 0.26172 1.3672 0.19141 2.0195-0.46094l3.7461-3.7461c0.42969-0.42969 1.1211-0.42969 1.5508 0 0.42969 0.42969 0.42969 1.1211 0 1.5508l-3.9375 3.9375c-0.65234 0.65234-0.72266 1.4062-0.46094 2.0195 0.10938 0.25391 0.27344 0.48828 0.47656 0.69531 0.20312 0.20312 0.44141 0.37109 0.69531 0.47656 0.61328 0.26172 1.3633 0.19141 2.0156-0.45703l3.75-3.75c0.42969-0.42969 1.1211-0.42969 1.5508 0 0.42969 0.42969 0.42969 1.1211 0 1.5508l-3.9375 3.9375c-0.65234 0.65234-0.72266 1.4062-0.46094 2.0195 0.10937 0.25391 0.27344 0.48828 0.47656 0.69531 0.20312 0.20312 0.44141 0.37109 0.69531 0.47656 0.61328 0.26172 1.3672 0.19141 2.0195-0.46094l12.672-12.672c0.42969-0.42969 1.1211-0.42969 1.5508 0zm30.098 25.863c1.0273 1.293 1.0742 2.7617 0.54688 4.0039-0.22266 0.52344-0.54688 0.99609-0.94141 1.3906-0.39453 0.39453-0.86719 0.71875-1.3906 0.94141-0.57031 0.24219-1.1875 0.36328-1.8125 0.32422-0.019532 0.49609-0.13672 0.98047-0.32813 1.4336-0.22266 0.52344-0.54687 0.99609-0.94141 1.3906-0.39453 0.39453-0.86719 0.71875-1.3906 0.94141-0.57031 0.24219-1.1875 0.36328-1.8125 0.32422-0.019531 0.49609-0.13672 0.98047-0.32812 1.4336-0.22266 0.52344-0.54688 0.99609-0.94141 1.3906s-0.86719 0.71875-1.3906 0.94141c-0.96094 0.41016-2.0586 0.47266-3.1055 0.007812-0.054687 0.20312-0.12109 0.39844-0.20312 0.58984-0.22266 0.52344-0.54688 0.99609-0.94141 1.3906s-0.86719 0.71875-1.3906 0.94141c-1.3789 0.58984-3.0391 0.46484-4.4297-0.92578l-9.9961-9.9961c-0.35938-0.36328-0.65625-0.75391-0.89844-1.1953-0.23828-0.4375-0.41016-0.89844-0.51953-1.4023l-1.1797-5.3867-9.8008-9.8008c-1.293 1.0273-2.7617 1.0742-4.0039 0.54688-0.52344-0.22266-0.99609-0.54688-1.3906-0.94141-0.39453-0.39453-0.71875-0.86719-0.94141-1.3906-0.24219-0.57031-0.36328-1.1875-0.32422-1.8125-0.49609-0.019532-0.98047-0.13672-1.4336-0.32813-0.52344-0.22266-0.99609-0.54687-1.3906-0.94141-0.39453-0.39453-0.71875-0.86719-0.94141-1.3906-0.24219-0.57031-0.36328-1.1875-0.32422-1.8125-0.49609-0.019531-0.98047-0.13672-1.4336-0.32812-0.52344-0.22266-0.99609-0.54688-1.3906-0.94141-0.39453-0.39453-0.71875-0.86719-0.94141-1.3906-0.41016-0.96094-0.47266-2.0586-0.007812-3.1055-0.20312-0.054687-0.39844-0.12109-0.58984-0.20312-0.52344-0.22266-0.99609-0.54688-1.3906-0.94141s-0.71875-0.86719-0.94141-1.3906c-0.58984-1.3789-0.46484-3.0391 0.92578-4.4297l9.9961-9.9961c0.36328-0.35938 0.75391-0.65625 1.1953-0.89844 0.4375-0.23828 0.89844-0.41016 1.4023-0.51953l5.3828-1.1797 9.8008-9.8008c-1.0273-1.293-1.0742-2.7617-0.54688-4.0039 0.22266-0.52344 0.54688-0.99609 0.94141-1.3906s0.86719-0.71875 1.3906-0.94141c0.57031-0.24219 1.1875-0.36328 1.8125-0.32422 0.019531-0.49609 0.13672-0.98047 0.32812-1.4336 0.22266-0.52344 0.54688-0.99609 0.94141-1.3906 0.39453-0.39453 0.86719-0.71875 1.3906-0.94141 0.57031-0.24219 1.1875-0.36328 1.8125-0.32422 0.019532-0.49609 0.13672-0.98047 0.32812-1.4336 0.22266-0.52344 0.54688-0.99609 0.94141-1.3906 0.39453-0.39453 0.86719-0.71875 1.3906-0.94141 0.96094-0.41016 2.0586-0.47266 3.1055-0.007812 0.054688-0.20312 0.12109-0.39844 0.20312-0.58984 0.22266-0.52344 0.54688-0.99609 0.94141-1.3906 0.39453-0.39453 0.86719-0.71875 1.3906-0.94141 1.3789-0.58984 3.0391-0.46484 4.4297 0.92578l9.9961 9.9961c0.35938 0.35938 0.65625 0.75391 0.89844 1.1953 0.23828 0.4375 0.41016 0.89844 0.51953 1.4023l1.1797 5.3828 9.8008 9.8008c1.293-1.0273 2.7617-1.0742 4.0039-0.54688 0.52344 0.22266 0.99609 0.54688 1.3906 0.94141 0.39453 0.39453 0.71875 0.86719 0.94141 1.3906 0.24219 0.57031 0.36328 1.1875 0.32422 1.8125 0.49609 0.019531 0.98047 0.13672 1.4336 0.32812 0.52344 0.22266 0.99609 0.54688 1.3906 0.94141s0.71875 0.86719 0.94141 1.3906c0.24219 0.57031 0.36328 1.1875 0.32422 1.8125 0.49609 0.019532 0.98047 0.13672 1.4336 0.32812 0.52344 0.22266 0.99609 0.54688 1.3906 0.94141 0.39453 0.39453 0.71875 0.86719 0.94141 1.3906 0.41016 0.96094 0.47266 2.0586 0.007813 3.1055 0.20312 0.054688 0.39844 0.12109 0.58984 0.20312 0.52344 0.22266 0.99609 0.54688 1.3906 0.94141 0.39453 0.39453 0.71875 0.86719 0.94141 1.3906 0.58984 1.3789 0.46484 3.0391-0.92578 4.4297l-9.9961 9.9961c-0.35938 0.36328-0.75391 0.65625-1.1953 0.89844-0.4375 0.23828-0.89844 0.41016-1.4023 0.51953l-5.3828 1.1797-9.8008 9.8008zm-1.9297 1.1289c0.65234 0.65234 0.72266 1.4062 0.46094 2.0195-0.10938 0.25391-0.27344 0.48828-0.47656 0.69531-0.20312 0.20313-0.44141 0.37109-0.69531 0.47656-0.61328 0.26172-1.3672 0.19141-2.0195-0.46094l-3.9375-3.9375c-0.42969-0.42969-1.1211-0.42969-1.5508 0-0.42969 0.42969-0.42969 1.1211 0 1.5508l3.7461 3.7461c0.65234 0.65234 0.72266 1.4062 0.46094 2.0195-0.10938 0.25391-0.27344 0.48828-0.47656 0.69531-0.20312 0.20312-0.44141 0.37109-0.69531 0.47656-0.61328 0.26172-1.3672 0.19141-2.0195-0.46094l-3.9375-3.9375c-0.42969-0.42969-1.1211-0.42969-1.5508 0-0.42969 0.42969-0.42969 1.1211 0 1.5508l3.7461 3.7461c0.65234 0.65234 0.72266 1.4062 0.46094 2.0195-0.10938 0.25391-0.27344 0.48828-0.47656 0.69531-0.20312 0.20312-0.44141 0.37109-0.69531 0.47656-0.61328 0.26172-1.3672 0.19141-2.0195-0.46094l-3.9375-3.9375c-0.42969-0.42969-1.1211-0.42969-1.5508 0-0.42969 0.42969-0.42969 1.1211 0 1.5508l2.5859 2.5859c0.65234 0.65234 0.72266 1.4062 0.46094 2.0195-0.10938 0.25391-0.27344 0.48828-0.47656 0.69531-0.20312 0.20312-0.44141 0.37109-0.69531 0.47656-0.61328 0.26172-1.3672 0.19141-2.0195-0.46094l-9.9961-9.9961c-0.22656-0.22656-0.40234-0.45312-0.53125-0.6875-0.13281-0.23828-0.23047-0.51172-0.29688-0.81641l-1.2422-5.6641c-0.039062-0.21484-0.14062-0.41797-0.30469-0.58594l-10.004-10.004 10.742-10.742 7.1211 7.1211 0.003906-0.003906c0.27734 0.27734 0.69922 0.39453 1.1016 0.26953l7.043-2.25c0.44141-0.14063 0.88281-0.18359 1.3086-0.13281 0.42188 0.050781 0.83594 0.19922 1.2305 0.44141l2.1484 1.3164-3.6836 3.6836c-0.42969 0.42969-0.42969 1.1211 0 1.5508l12.297 12.297c0.066407 0.066406 0.13672 0.11719 0.21094 0.16406 0.046875 0.074219 0.10156 0.14453 0.16406 0.21094z" fill-rule="evenodd"/>
<text x="0.0" y="117.5" font-size="5.0" font-weight="bold" font-family="Arbeit Regular, Helvetica, Arial-Unicode, Arial, Sans-serif" fill="#000000">Created by Good Wife</text><text x="0.0" y="122.5" font-size="5.0" font-weight="bold" font-family="Arbeit Regular, Helvetica, Arial-Unicode, Arial, Sans-serif" fill="#000000">from Noun Project</text></svg>