<svg xmlns="http://www.w3.org/2000/svg" version="1.1" viewBox="-5.0 -10.0 110.0 135.0">
 <path d="m50 4.2852c-0.46484 0-0.90234 0.22266-1.1719 0.60156l-30.199 42.637c-0.30469 0.43359-0.34375 1.0039-0.097656 1.4766s0.73438 0.76562 1.2656 0.76953h14.762v44.512h0.003906c-0.003906 0.37891 0.14844 0.74219 0.41406 1.0117 0.26563 0.26953 0.62891 0.42188 1.0078 0.42188h28.031c0.37891 0 0.74219-0.15234 1.0078-0.42188 0.26562-0.26953 0.41797-0.63281 0.41406-1.0117v-44.512h14.766c0.53125-0.003906 1.0195-0.29688 1.2656-0.76953s0.20703-1.043-0.097656-1.4766l-30.199-42.637c-0.26953-0.37891-0.70703-0.60156-1.1719-0.60156zm0 3.9141 27.449 38.723h-13.434c-0.37891-0.003906-0.74219 0.14844-1.0117 0.41406-0.26953 0.26562-0.42188 0.62891-0.42188 1.0078v44.512h-25.164v-44.512c0-0.37891-0.15234-0.74219-0.42188-1.0078-0.26953-0.26563-0.63281-0.41797-1.0117-0.41406h-13.434z"/>
<text x="0.0" y="117.5" font-size="5.0" font-weight="bold" font-family="Arbeit Regular, Helvetica, Arial-Unicode, Arial, Sans-serif" fill="#000000">Created by Alzam</text><text x="0.0" y="122.5" font-size="5.0" font-weight="bold" font-family="Arbeit Regular, Helvetica, Arial-Unicode, Arial, Sans-serif" fill="#000000">from Noun Project</text></svg>