<svg xmlns="http://www.w3.org/2000/svg" version="1.1" viewBox="-5.0 -10.0 110.0 135.0">
 <path d="m45.301 24.734c1.9297 0 3.668-1.1602 4.4062-2.9414 0.74219-1.7812 0.33594-3.8359-1.0312-5.1992-1.3633-1.3672-3.4141-1.7734-5.1953-1.0391-1.7852 0.73828-2.9453 2.4766-2.9492 4.4062 0.003906 2.6328 2.1367 4.7656 4.7695 4.7734zm0-6.8008c0.82422 0 1.5664 0.49609 1.8828 1.2539 0.31641 0.76172 0.14062 1.6367-0.44141 2.2188-0.58203 0.58594-1.457 0.75781-2.2188 0.44141-0.76172-0.31641-1.2578-1.0586-1.2539-1.8828 0-1.1211 0.90625-2.0312 2.0312-2.0352zm8.8984 45.543c-2.4375 0-4.8203 0.71094-6.8555 2.0508-3.8477-2.5234-8.7695-2.7344-12.82-0.54688-4.0508 2.1875-6.5742 6.418-6.5742 11.02s2.5234 8.8359 6.5742 11.02c4.0508 2.1875 8.9727 1.9766 12.82-0.54688 3.3086 2.1641 7.4453 2.6367 11.156 1.2773 3.7148-1.3555 6.5664-4.3906 7.6953-8.1797 1.1289-3.7891 0.40234-7.8867-1.957-11.059-2.3633-3.168-6.0859-5.0391-10.039-5.0391zm-13.715 22.309c-3.0234 0.003906-5.875-1.3867-7.7344-3.7656-1.8594-2.3828-2.5156-5.4883-1.7773-8.418 0.73828-2.9258 2.7891-5.3516 5.5547-6.5664s5.9375-1.0859 8.5938 0.35156c-4.5977 4.8242-4.5977 12.406 0 17.23-1.4258 0.76953-3.0195 1.1719-4.6367 1.168zm3.9258-9.7852c-0.003906-2.625 1.0547-5.1445 2.9297-6.9805 1.875 1.8359 2.9336 4.3516 2.9336 6.9766s-1.0586 5.1406-2.9336 6.9766c-1.875-1.8359-2.9297-4.3477-2.9297-6.9727zm9.7891 9.7852c-1.6172 0.003906-3.2148-0.40234-4.6367-1.1719 4.5977-4.8242 4.5977-12.41 0-17.234 2.6562-1.4297 5.8242-1.5547 8.5859-0.33984 2.7617 1.2148 4.8086 3.6406 5.5469 6.5664 0.73828 2.9258 0.082032 6.0273-1.7734 8.4102-1.8555 2.3789-4.7031 3.7695-7.7227 3.7695zm42.891-68.074c-2.8047-1.5977-6.3711-0.63281-7.9883 2.1602l-4.9453 8.5625h-28.09l-2.1523-4.2383v-0.003906c1.1562-2.3477 1.3008-5.0625 0.40234-7.5195-0.89453-2.457-2.7578-4.4414-5.1523-5.4922v-3.3945c-0.035156-2.1055-1.7539-3.7969-3.8633-3.7969-2.1055 0-3.8242 1.6914-3.8594 3.7969v3.3945c-2.3945 1.0508-4.2578 3.0352-5.1562 5.4922-0.89453 2.457-0.75 5.1758 0.40625 7.5195l-2.1523 4.2383-16.727 0.003906v-7.7969c0-0.75391-0.61328-1.3672-1.3672-1.3672h-7.5391c-4.9141 0.003907-8.9023 3.9922-8.9062 8.9102v58.984c0.0078125 4.9219 4 8.9062 8.918 8.9062h83.121c0.36328 0 0.71094-0.14062 0.96875-0.39844 0.25391-0.25781 0.39844-0.60547 0.39844-0.96875v-58.922l5.8125-10.066h0.003906c1.6016-2.8008 0.64844-6.3711-2.1367-8.0039zm-40.266 18.262h-2.6602l-3.9531-7.7656c0.69922-0.41797 1.3398-0.92188 1.9141-1.5zm1.3867 2.7344 3.5781 7.0547v5.1875l-6.2305-12.242zm-7.1094-2.7344h-11.598l3.4141-6.7109h0.003906c1.5586 0.39844 3.1953 0.39844 4.7578 0zm-6.9258-28.188c0.019531-0.60547 0.51562-1.0898 1.125-1.0898s1.1094 0.48438 1.1289 1.0898v2.6484c-0.375-0.042969-0.75391-0.066406-1.1289-0.066406s-0.75 0.023437-1.125 0.066406zm1.125 5.3164c2.7773-0.003906 5.2773 1.668 6.3438 4.2344 1.0625 2.5625 0.47266 5.5156-1.4883 7.4805-1.9648 1.9609-4.918 2.5508-7.4805 1.4883-2.5664-1.0664-4.2383-3.5664-4.2344-6.3438 0.003906-3.7891 3.0703-6.8555 6.8594-6.8594zm-6.8203 13.605c0.57031 0.57812 1.2148 1.082 1.9102 1.5l-3.9531 7.7656-2.6602 0.003906zm-3.4375 12-6.2305 12.238v-5.1836l3.5781-7.0547zm-32.309-10.527c0.003906-3.4102 2.7656-6.1719 6.1719-6.1758h6.168v7.8008 0.078124 0.082032 48.301h-6.168c-2.3008 0-4.5156 0.89844-6.1719 2.5zm87.938 65.156h-81.754c-3.3945-0.039063-6.1367-2.7773-6.1836-6.1719v-0.082031c0.058594-3.3711 2.8008-6.0781 6.1719-6.0898h7.5391c0.75391 0 1.3672-0.61328 1.3672-1.3711v-48.453h15.34l-2.4375 4.8047h-4.6445c-0.36719-0.007812-0.72656 0.12891-0.98828 0.38672-0.26562 0.25781-0.41406 0.61328-0.41406 0.98047 0 0.37109 0.14844 0.72266 0.41406 0.98047 0.26172 0.25781 0.62109 0.39844 0.98828 0.38672h3.2539l-3.1016 6.1094c-0.097656 0.19141-0.14844 0.40234-0.14844 0.61719v14.531c-0.007813 0.36719 0.13281 0.72656 0.39062 0.98828 0.25781 0.26562 0.60938 0.41406 0.98047 0.41406 0.36719 0 0.72266-0.14844 0.97656-0.41406 0.25781-0.26172 0.39844-0.62109 0.39062-0.98828v-2.9922l9.3008-18.266h14.375l9.3008 18.266v2.9922c-0.011718 0.36719 0.12891 0.72656 0.38672 0.98828 0.25781 0.26562 0.61328 0.41406 0.98047 0.41406 0.37109 0 0.72266-0.14844 0.98047-0.41406 0.25781-0.26172 0.39844-0.62109 0.38672-0.98828v-14.531c0-0.21484-0.050782-0.42578-0.14844-0.61719l-3.1016-6.1094h3.2539c0.74219-0.019531 1.332-0.625 1.332-1.3672 0-0.74219-0.58984-1.3477-1.332-1.3672h-4.6328l-2.4375-4.8047h25.121l-13.73 23.777c-0.10547 0.18359-0.16797 0.38672-0.17969 0.59766l-0.60156 9.9883c-0.03125 0.51953 0.23438 1.0078 0.67969 1.2656 0.44922 0.26172 1.0078 0.24219 1.4375-0.042969l8.3477-5.5156h0.003906c0.17578-0.11328 0.32422-0.26953 0.42969-0.45703l11.699-20.266zm-19.406-35.418 3.918 2.2617-4.2227 2.7891zm25.586-33.57-6 10.398-0.011718 0.019531-13.559 23.469-5.3828-3.1055 14.223-24.629 0.035156-0.0625 5.3125-9.1992c0.40625-0.72656 1.0859-1.2617 1.8867-1.4844 0.80469-0.21875 1.6602-0.10938 2.3828 0.30859 0.72266 0.41406 1.2461 1.1016 1.4531 1.9102 0.21094 0.80469 0.085938 1.6602-0.33984 2.375z"/>
<text x="0.0" y="117.5" font-size="5.0" font-weight="bold" font-family="Arbeit Regular, Helvetica, Arial-Unicode, Arial, Sans-serif" fill="#000000">Created by Awicon</text><text x="0.0" y="122.5" font-size="5.0" font-weight="bold" font-family="Arbeit Regular, Helvetica, Arial-Unicode, Arial, Sans-serif" fill="#000000">from Noun Project</text></svg>