<svg xmlns="http://www.w3.org/2000/svg" xmlns:xlink="http://www.w3.org/1999/xlink" version="1.1" x="0px" y="0px" viewBox="0 0 64 80" enable-background="new 0 0 64 64" xml:space="preserve"><path d="M57.345,58.2c-0.143-1.985-0.606-13.006-1.394-14.83c-1.036-2.4-2.376-4.582-4.711-5.941  c-1.047-0.61-2.136-1.162-3.25-1.638c-1.688-0.721-3.391-1.405-5.09-2.099c1.911-0.061,3.767-0.513,5.18-1.047  c-0.12-0.049-0.208-0.089-0.298-0.122c-1.594-0.579-2.906-1.521-3.77-3.007c-0.398-0.684-0.672-1.396-0.852-2.128h0.776  c0.722,0.037,1.037-0.271,1.294-0.889c1.302-3.127,1.639-6.37,1.223-9.704c-0.492-3.946-1.724-7.584-4.177-10.669  c-0.069-0.103-0.14-0.206-0.214-0.307c-0.565-0.771-1.204-1.426-1.907-1.982c-1.194-1.13-2.528-2.083-4.202-2.314  c-0.86-0.119-1.732-0.195-2.607-0.235c-0.073-0.012-0.147-0.023-0.22-0.036c-0.745,0-1.491,0-2.236,0  c-0.024,0.005-0.047,0.012-0.071,0.018c-0.475,0.015-0.95,0.037-1.422,0.071c-2.118,0.151-3.888,1.108-5.429,2.441  c-0.8,0.602-1.495,1.3-2.058,2.122c-2.594,3.156-3.874,6.898-4.368,10.966c-0.409,3.369-0.078,6.653,1.328,9.775  c0.134,0.297,0.514,0.695,0.774,0.69h1.286c-0.674,2.448-2.151,4.255-4.686,5.213c-0.072,0.027-0.14,0.067-0.325,0.156  c1.797,0.559,3.553,0.976,5.249,1.003c-2.321,0.966-4.65,1.916-6.953,2.922c-2.431,1.062-4.209,2.836-5.432,5.19  c-1.225,2.36-2.002,13.953-2.141,16.617c-0.043,0.824,0.057,0.966,0.817,1.259c0.361,0.139,0.724,0.274,1.091,0.394  c3.346,1.099,6.804,1.679,10.294,1.971c4.386,0.366,8.788,0.554,11.05,0.691c7.642-0.066,13.132-0.295,18.581-1.096  c2.682-0.394,5.338-0.928,7.888-1.888C57.34,59.399,57.421,59.257,57.345,58.2z M22.899,13.482c0.107-0.959,0.284-1.863,0.512-2.708  c0.158-0.587,0.69-1.01,1.298-0.986c0.004,0,0.008,0,0.013,0.001c2.102,0.092,4.197-0.047,6.256-0.515  c0.685-0.156,1.344-0.35,1.975-0.586c0.433,0.325,0.881,0.638,1.341,0.942c1.194,0.79,2.411,1.577,3.47,2.527  c1.068,0.957,1.952,2.117,2.922,3.192c0.36-2.07-1.396-3.182-2.306-4.694c1.284,0.813,2.345,1.762,3.066,2.938l0.274,0.488  c0.42,0.83,0.679,1.767,0.739,2.839c0.015,0.255,0.019,0.508,0.016,0.759c0.006,0.292-0.144,1.208-0.332,2.224  c-0.805,4.371-3.231,8.305-6.85,10.884c-0.117,0.084-0.236,0.166-0.356,0.248c-2.032,1.383-3.756,1.084-5.903-0.047  C20.365,26.421,22.899,13.482,22.899,13.482z M23.287,33.509c1.294-0.276,2.546-0.861,3.745-1.882  c0.947,0.535,1.829,1.069,2.743,1.542c1.465,0.759,2.961,0.77,4.437,0.026c0.828-0.417,1.629-0.885,2.454-1.336  c1.288,1.064,2.855,1.589,4.469,1.767C30.69,43.631,23.287,33.509,23.287,33.509z"/><text x="0" y="79" fill="#000000" font-size="5px" font-weight="bold" font-family="'Helvetica Neue', Helvetica, Arial-Unicode, Arial, Sans-serif">Created by Arafat Uddin</text><text x="0" y="84" fill="#000000" font-size="5px" font-weight="bold" font-family="'Helvetica Neue', Helvetica, Arial-Unicode, Arial, Sans-serif">from the Noun Project</text></svg>