<svg xmlns="http://www.w3.org/2000/svg" version="1.1" viewBox="-5.0 -10.0 110.0 135.0">
 <path d="m52.168 28.516c-0.64062-0.64062-1.5312-1.0391-2.5117-1.0391s-1.8672 0.39844-2.5117 1.0391c-0.64062 0.64062-1.0391 1.5312-1.0391 2.5117 0 0.98047 0.39844 1.8672 1.0391 2.5117 0.64062 0.64063 1.5312 1.0391 2.5117 1.0391s1.8672-0.39844 2.5117-1.0391c0.64062-0.64062 1.0391-1.5312 1.0391-2.5117 0-0.98047-0.39844-1.8672-1.0391-2.5117zm-2.5117-3.2383c1.5859 0 3.0234 0.64453 4.0625 1.6836 1.0391 1.0391 1.6836 2.4766 1.6836 4.0625 0 1.5859-0.64453 3.0234-1.6836 4.0625-1.0391 1.0391-2.4766 1.6836-4.0625 1.6836s-3.0234-0.64453-4.0625-1.6836c-1.0391-1.0391-1.6836-2.4766-1.6836-4.0625 0-1.5859 0.64453-3.0234 1.6836-4.0625 1.0391-1.0391 2.4766-1.6836 4.0625-1.6836zm-10.57 22.824h21.145c-0.42578-2.1133-1.5195-3.9883-3.0508-5.4023-1.7969-1.6562-4.1914-2.6758-6.8164-2.6758h-1.418c-2.6211 0-5.0195 1.0156-6.8164 2.6758-1.5273 1.4102-2.6211 3.2891-3.0508 5.4023zm39.422 21.863h-57.699v2.5625h57.699zm-47.754-2.1992h-9.3516l-3.9844-9.2422c-0.23828-0.55859-0.88672-0.8125-1.4414-0.57422-0.55859 0.23828-0.8125 0.88672-0.57422 1.4414l3.6914 8.5625c-0.29297 0.19531-0.48438 0.53125-0.48438 0.91016v3.6445h-11.773v-15.707c0-2.0508 0.83984-3.9102 2.1914-5.2617 1.3516-1.3516 3.2148-2.1914 5.2617-2.1914 5.7422 0 7.4414 5.7227 8.9297 10.734 0.29688 1.0078 0.58984 1.9844 0.89453 2.8789 0.15625 0.45703 0.58203 0.74609 1.0391 0.74609v0.003907h5.6016c0.55859 0 1.0625 0.22656 1.4297 0.59766 0.36719 0.36719 0.59766 0.875 0.59766 1.4297 0 1.1133-0.91016 2.0273-2.0273 2.0273zm-8.3828-32.469c-0.94531-0.94531-2.2578-1.5312-3.7031-1.5312-1.4453 0-2.7539 0.58594-3.7031 1.5312-0.94922 0.94531-1.5312 2.2578-1.5312 3.7031s0.58594 2.7539 1.5312 3.7031c0.94531 0.94922 2.2578 1.5312 3.7031 1.5312 1.4453 0 2.7539-0.58594 3.7031-1.5312 0.94922-0.94531 1.5312-2.2578 1.5312-3.7031s-0.58594-2.7539-1.5312-3.7031zm-3.7031-3.7305c2.0508 0 3.9102 0.83203 5.2539 2.1758s2.1758 3.2031 2.1758 5.2539c0 2.0508-0.83203 3.9102-2.1758 5.2539s-3.2031 2.1758-5.2539 2.1758-3.9102-0.83203-5.2539-2.1758-2.1758-3.2031-2.1758-5.2539c0-2.0508 0.83203-3.9102 2.1758-5.2539s3.2031-2.1758 5.2539-2.1758zm46.875 36.199c-0.33203-0.60156-0.52344-1.293-0.52344-2.0273 0-1.1641 0.47656-2.2188 1.2383-2.9844 0.76563-0.76562 1.8203-1.2383 2.9844-1.2383h4.8125c0.16797-0.52344 0.32812-1.0586 0.49219-1.6055-0.085937-0.089844-0.15625-0.19922-0.21094-0.32031l-3.9961-9.293h-41.379l-3.8281 8.543c0.0625 0.21094 0.125 0.42188 0.1875 0.62891 0.20703 0.69922 0.41016 1.3867 0.62109 2.0469h4.8125c1.1641 0 2.2188 0.47656 2.9844 1.2383 0.76562 0.76562 1.2383 1.8203 1.2383 2.9844 0 0.73438-0.19141 1.4258-0.52344 2.0273zm15.16 4.7461v-3.6445c0-0.11328-0.019531-0.22656-0.050781-0.32813l3.9414-9.1445c0.23828-0.55859-0.019531-1.2031-0.57422-1.4414-0.55859-0.23828-1.2031 0.019531-1.4414 0.57422l-3.9844 9.2422h-9.3516c-1.1133 0-2.0273-0.91016-2.0273-2.0273 0-0.55859 0.22656-1.0625 0.59766-1.4297 0.36719-0.36719 0.875-0.59766 1.4297-0.59766h5.6016v-0.003906c0.45703 0 0.88281-0.28906 1.0391-0.74609 0.30469-0.89453 0.59766-1.875 0.89453-2.8789 1.4883-5.0117 3.1875-10.734 8.9297-10.734 2.0508 0 3.9102 0.83984 5.2617 2.1914 1.3516 1.3516 2.1914 3.2148 2.1914 5.2617v15.707h-12.461zm-0.41406 2.1953c-0.10937 0-0.21875-0.015625-0.32031-0.046875-0.11328 0.039063-0.23828 0.0625-0.36328 0.0625h-59.895c-0.0625 0-0.12109-0.003906-0.17969-0.015625h-13.793c-0.60547 0-1.0977-0.49219-1.0977-1.0977v-16.805c0-2.6562 1.0859-5.0664 2.8359-6.8164 1.7461-1.7461 4.1602-2.8359 6.8164-2.8359 5.7891 0 8.2344 4.043 9.8438 8.5625l3.1211-6.9648c0.18359-0.40625 0.58203-0.64844 1-0.64844v-0.003906h8.6016c0.45312-2.75 1.8281-5.1992 3.7969-7.0156 2.1875-2.0195 5.1055-3.2578 8.3008-3.2578h1.418c3.1914 0 6.1094 1.2383 8.3008 3.2578 1.9688 1.8164 3.3438 4.2656 3.7969 7.0156h8.6016c0.46875 0 0.87109 0.29688 1.0273 0.71094l3.4219 7.9492c1.6094-4.9219 3.9688-9.6094 10.199-9.6094 2.6562 0 5.0664 1.0859 6.8164 2.8359s2.8359 4.1602 2.8359 6.8164v16.805c0 0.60547-0.49219 1.0977-1.0977 1.0977h-13.973zm-4.2109-40.965c-1.3438 1.3438-2.1758 3.2031-2.1758 5.2539 0 2.0508 0.83203 3.9102 2.1758 5.2539s3.2031 2.1758 5.2539 2.1758 3.9102-0.83203 5.2539-2.1758 2.1758-3.2031 2.1758-5.2539c0-2.0508-0.83203-3.9102-2.1758-5.2539s-3.2031-2.1758-5.2539-2.1758-3.9102 0.83203-5.2539 2.1758zm5.2539 0.023437c-1.4453 0-2.7539 0.58594-3.7031 1.5312-0.94922 0.94531-1.5312 2.2578-1.5312 3.7031s0.58594 2.7539 1.5312 3.7031c0.94531 0.94922 2.2578 1.5312 3.7031 1.5312 1.4453 0 2.7539-0.58594 3.7031-1.5312 0.94531-0.94531 1.5312-2.2578 1.5312-3.7031s-0.58594-2.7539-1.5312-3.7031c-0.94531-0.94531-2.2578-1.5312-3.7031-1.5312z" fill-rule="evenodd"/>
<text x="0.0" y="117.5" font-size="5.0" font-weight="bold" font-family="Arbeit Regular, Helvetica, Arial-Unicode, Arial, Sans-serif" fill="#000000">Created by Good Wife</text><text x="0.0" y="122.5" font-size="5.0" font-weight="bold" font-family="Arbeit Regular, Helvetica, Arial-Unicode, Arial, Sans-serif" fill="#000000">from Noun Project</text></svg>