<svg xmlns="http://www.w3.org/2000/svg" version="1.1" viewBox="-5.0 -10.0 110.0 135.0">
 <path d="m12.797 16.348c-2.3477 0-4.4805 0.95703-6.0234 2.5039-0.003907 0.003907-0.011719 0.007813-0.019532 0.015626-0.011718 0.011718-0.023437 0.027343-0.03125 0.039062-1.5039 1.5391-2.4375 3.6406-2.4375 5.957v50.27c0 2.2852 0.91016 4.3672 2.3789 5.8984 0.03125 0.035156 0.058594 0.070312 0.089844 0.10547 0.011719 0.003906 0.019532 0.011719 0.027344 0.019531 0.003906 0 0.003906 0 0.007812 0.003906 1.5391 1.5391 3.668 2.4961 6.0117 2.4961l74.414-0.003906c2.332 0 4.4453-0.94531 5.9805-2.4766l0.003907 0.003907c0.019531-0.015626 0.039062-0.03125 0.058593-0.046876 0.0625-0.058593 0.125-0.12891 0.17578-0.20312 1.4141-1.5195 2.2812-3.5586 2.2812-5.7969v-50.27c0-2.2422-0.87109-4.2812-2.2891-5.8047-0.050781-0.070313-0.10547-0.13281-0.16797-0.19531-0.011718-0.003906-0.023437-0.011719-0.035156-0.019531l-0.003906-0.003906c-1.5391-1.543-3.6602-2.4961-6.0039-2.4961zm0 2.8555h74.418c1.0977 0 2.1133 0.30859 2.9727 0.83594l-32.227 34.215c-4.332 4.5977-11.578 4.5977-15.91 0l-32.23-34.211c0.86328-0.53125 1.8789-0.83984 2.9805-0.83984zm-4.957 2.9102 26.27 27.883-26.27 27.891c-0.44531-0.8125-0.69922-1.75-0.69922-2.7539l0.003906-50.27c0-1.0039 0.25391-1.9375 0.69922-2.75zm84.32 0.003907c0.44141 0.80859 0.69531 1.7422 0.69531 2.7461v50.27c0 1.0039-0.25391 1.9375-0.69531 2.75l-26.262-27.887zm-56.09 29.961 3.8984 4.1367c5.4297 5.7656 14.641 5.7656 20.07 0l3.8984-4.1367 26.25 27.879c-0.85938 0.52734-1.8711 0.83594-2.9727 0.83594l-74.418 0.003906c-1.1016 0-2.1172-0.30859-2.9805-0.83984z"/>
<text x="0.0" y="117.5" font-size="5.0" font-weight="bold" font-family="Arbeit Regular, Helvetica, Arial-Unicode, Arial, Sans-serif" fill="#000000">Created by Alzam</text><text x="0.0" y="122.5" font-size="5.0" font-weight="bold" font-family="Arbeit Regular, Helvetica, Arial-Unicode, Arial, Sans-serif" fill="#000000">from Noun Project</text></svg>