<svg xmlns="http://www.w3.org/2000/svg" xmlns:xlink="http://www.w3.org/1999/xlink" version="1.1" x="0px" y="0px" viewBox="0 0 80 100" style="enable-background:new 0 0 80 80;" xml:space="preserve"><path d="M70.4844,34.1118L56.3247,19.2319c-0.2651-0.2793-0.668-0.3799-1.0337-0.2617c-0.0522,0.0171-5.3032,1.7026-13.252,2.3843  c-2.0205,0.1638-4.1406,1.2089-6.3052,3.0835c-5.6943-2.6787-10.8042-5.373-10.8564-5.4009  c-0.3984-0.2109-0.8843-0.1299-1.1914,0.1948L9.5161,34.1118c-0.3354,0.3521-0.3687,0.894-0.0796,1.2847  c1.9434,2.6223,3.9688,5.0638,6.0278,7.2964c-0.5073,0.5193-0.8457,1.1886-0.9424,1.916c-0.1245,0.9312,0.1489,1.8794,0.7485,2.6011  l0.873,1.0518c0.5791,0.7125,1.397,1.1062,2.2515,1.1954c-0.0908,0.8536,0.1377,1.7426,0.71,2.4633l0.564,0.7148  c0.5854,0.7334,1.4575,1.1934,2.3936,1.2627c0.0527,0.0037,0.105,0.0043,0.1572,0.0056c-0.001,0.0474-0.0132,0.0933-0.0122,0.1409  c0.0166,0.9399,0.4321,1.8389,1.1367,2.4629l0.7451,0.6646c0.625,0.5508,1.4092,0.8457,2.2329,0.8457  c0.0913,0,0.1826-0.0034,0.2749-0.0107c0.0752-0.006,0.1455-0.0288,0.2192-0.0396c0.0029,0.0186,0,0.0371,0.0029,0.0557  c0.1509,0.9619,0.7114,1.813,1.5293,2.3291l0.3188,0.2051c0.5601,0.353,1.1851,0.5225,1.8037,0.5225  c1.0698,0,2.1201-0.5073,2.7803-1.4478l1.4678-2.1123c2.7339,1.3362,4.7051,1.9783,5.6694,2.2441  c0.3384,0.0957,0.6826,0.1421,1.0249,0.1421c1.1455,0,2.2656-0.5234,3.0537-1.4956c0.4688-0.5791,0.7427-1.2653,0.8252-1.9871  c0.5815,0.3232,1.2246,0.4915,1.8706,0.4915c0.9355,0,1.8701-0.3364,2.6064-1l0.1294-0.1201  c0.7227-0.6504,1.145-1.5472,1.2354-2.5049c0.3774,0.1202,0.7725,0.1919,1.1758,0.1919c1.021,0,1.98-0.3892,2.6982-1.0942  c0.6084-0.5934,0.9927-1.3696,1.1177-2.1987c0.5273,0.2534,1.0986,0.3926,1.6743,0.3926c0.9209,0,1.8413-0.3228,2.5645-0.9639  l0.1592-0.1382c1.0718-0.9517,1.5039-2.4141,1.1929-3.7683c2.7129-2.1309,5.8091-4.9521,8.9126-10.4158  C70.8472,34.9121,70.7881,34.4312,70.4844,34.1118z M16.8091,45.9321c-0.248-0.2983-0.356-0.6743-0.3047-1.0586  c0.0518-0.3892,0.2578-0.7275,0.5742-0.9497l5.2163-3.6245c0.2388-0.1675,0.5132-0.248,0.7856-0.248  c0.4111,0,0.8169,0.1836,1.0874,0.5308l0.5435,0.7046c0.4399,0.5642,0.3579,1.3721-0.1763,1.8645l-3.9316,3.2329  c0,0-0.0005,0.0001-0.0005,0.0002c0,0,0,0.0001,0,0.0002l-0.9727,0.7996c-0.0015,0.0013-0.0044,0.0039-0.0059,0.0054l-0.002,0.0015  c-0.0103,0.0083-0.0229,0.02-0.0366,0.0322c-0.5854,0.4443-1.4263,0.3481-1.8965-0.2305L16.8091,45.9321z M21.2354,51.3921  l-0.562-0.7129c-0.4692-0.5903-0.3809-1.4526,0.1973-1.9219c0.0137-0.0112,0.0322-0.0278,0.0503-0.0449l0.1333-0.1096l4.7402-3.8879  c0.0063-0.0059,0.0132-0.0112,0.02-0.0171c0.0146-0.0127,0.0249-0.0283,0.0396-0.0413l1.9634-1.6145  c0.5664-0.4683,1.4033-0.4038,1.8867,0.124l0.2051,0.2363c0.5112,0.5645,0.4795,1.4116-0.0728,1.9287  c-0.001,0.0015-0.0024,0.0024-0.0039,0.0039l-1.9951,1.8882c-0.0293,0.022-0.0576,0.0459-0.0835,0.0703l-2.8101,2.6504  c-0.0283,0.0264-0.0542,0.0547-0.0791,0.084l-1.5967,1.5017c-0.2896,0.27-0.6646,0.4001-1.0586,0.3738  C21.8218,51.8745,21.4746,51.6914,21.2354,51.3921z M26.4395,56.0132c-0.3784,0.0332-0.7441-0.0913-1.0234-0.3379l-0.7427-0.6626  c-0.2935-0.2603-0.459-0.6162-0.4658-1.0034c-0.0068-0.3887,0.1465-0.752,0.4375-1.0298l1.6699-1.5698  c0.0288-0.0269,0.0557-0.0557,0.0806-0.0859l2.6753-2.5229c0.0264-0.02,0.0518-0.0415,0.0767-0.064  c0.5151-0.4746,1.2783-0.4883,1.8281-0.0229l0.1572,0.1294c0.5757,0.4888,0.6553,1.354,0.1777,1.9292  c-0.0005,0.001-0.001,0.0015-0.002,0.0024l-3.9092,4.7393C27.1582,55.8062,26.8169,55.9829,26.4395,56.0132z M31.6118,58.4863  c-0.4272,0.6069-1.2524,0.7734-1.8701,0.3838l-0.3179-0.2046c-0.3428-0.2163-0.5664-0.5547-0.6289-0.9531  c-0.062-0.3955,0.0454-0.7827,0.3032-1.0913l2.7822-3.3423c0.271-0.3267,0.6592-0.4966,1.0532-0.4966  c0.2949,0,0.5928,0.0957,0.8467,0.2915c0.5806,0.4468,0.707,1.2715,0.2886,1.877L31.6118,58.4863z M59.2051,47.9756l-0.1587,0.1377  c-0.6865,0.6089-1.73,0.6304-2.4297,0.0469l-9.498-7.8784c-0.4233-0.3521-1.0552-0.2935-1.4082,0.1309  c-0.3525,0.4248-0.2939,1.0552,0.1309,1.4082l7.647,6.3428c0.0068,0.0056,0.0088,0.0137,0.0156,0.019  c0.4102,0.3379,0.6479,0.8188,0.6704,1.3535c0.0225,0.5396-0.1772,1.0435-0.5645,1.4214c-0.647,0.6357-1.7778,0.688-2.4868,0.0991  l-7.9487-6.5186c-0.4268-0.3506-1.0571-0.2891-1.4072,0.1387c-0.3506,0.4268-0.2886,1.0571,0.1387,1.4072l6.5713,5.3894  c0.0044,0.0038,0.0063,0.0093,0.0107,0.0129c0.4224,0.3442,0.6719,0.8545,0.6851,1.3989c0.0132,0.5425-0.21,1.061-0.6226,1.4326  l-0.1299,0.1206c-0.6548,0.5913-1.6465,0.6416-2.3569,0.1177l-2.2471-1.6514c-0.0078-0.0061-0.0137-0.014-0.0215-0.02  c-0.0049-0.0039-0.0112-0.0042-0.0166-0.0079l-4.5063-3.3119c-0.4463-0.3276-1.0713-0.23-1.3979,0.2144  c-0.3267,0.4453-0.231,1.0713,0.2144,1.3979l4.5195,3.3217c0.394,0.3094,0.646,0.7513,0.7061,1.2516  c0.0615,0.5083-0.0811,1.0059-0.438,1.4575c-0.4766,0.5825-1.2383,0.8291-1.9502,0.6294c-0.8721-0.2408-2.6191-0.8065-5.0781-1.9899  c0.8403-1.4543,0.5034-3.3182-0.8462-4.3578c-0.4604-0.3556-0.9829-0.5603-1.5166-0.6494c0.3555-1.2402-0.0171-2.6382-1.0698-3.5317  l-0.1582-0.1299c-0.2798-0.2373-0.5918-0.4122-0.917-0.5439c1.1904-1.2634,1.2354-3.2673,0.0664-4.5586l-0.2085-0.2397  c-1.126-1.2314-2.9458-1.439-4.3125-0.5665c-0.1118-0.4281-0.3052-0.8405-0.5933-1.2094l-0.5435-0.7041  c-1.1089-1.4229-3.1323-1.7266-4.5991-0.6968l-4.0747,2.8315c-1.8823-2.0291-3.7378-4.2405-5.5278-6.6123l13.0679-13.7222  c1.4966,0.7788,5.311,2.7407,9.5586,4.7563c-1.5806,1.6306-2.8979,3.3931-3.7822,4.689c-0.3999,0.5933-0.6113,1.2739-0.6113,1.9692  c0,0.9307,0.3862,1.8433,1.0625,2.5063c1.0996,1.0718,2.8091,1.2969,4.1548,0.5464l3.9619-2.2104  c1.019-0.5713,2.1797-0.9009,3.3564-0.9531l3.4038-0.1543c6.1738,4.5256,11.2114,10.1235,13.6855,13.0884  c0.0923,0.1099,0.1689,0.2324,0.2427,0.3877C60.0088,46.5386,59.8271,47.4229,59.2051,47.9756z M60.7686,43.91  c-2.624-3.1254-7.8086-8.8375-14.1523-13.4291c-0.0454-0.0328-0.0981-0.0426-0.147-0.0668  c-0.0493-0.025-0.0957-0.0507-0.1489-0.0675c-0.0708-0.0217-0.1406-0.0292-0.2134-0.0347c-0.0415-0.0039-0.0796-0.0216-0.1226-0.02  l-3.7588,0.1704c-1.4863,0.0659-2.9541,0.4834-4.2427,1.2056l-3.9595,2.2095c-0.5811,0.3232-1.314,0.2266-1.7832-0.23  c-0.2969-0.291-0.4604-0.6733-0.4604-1.0762c0-0.2954,0.0933-0.5894,0.2666-0.8467c1.0117-1.4829,2.6182-3.6177,4.5322-5.3691  c2.0083-1.856,3.8999-2.8677,5.627-3.0078c6.6963-0.5742,11.4639-1.8188,13.0947-2.291L68.519,34.9482  C65.8237,39.5112,63.2261,41.9548,60.7686,43.91z"/><text x="0" y="95" fill="#000000" font-size="5px" font-weight="bold" font-family="'Helvetica Neue', Helvetica, Arial-Unicode, Arial, Sans-serif">Created by Icon Lauk</text><text x="0" y="100" fill="#000000" font-size="5px" font-weight="bold" font-family="'Helvetica Neue', Helvetica, Arial-Unicode, Arial, Sans-serif">from the Noun Project</text></svg>