<svg xmlns="http://www.w3.org/2000/svg" version="1.1" viewBox="-5.0 -10.0 110.0 135.0">
 <path d="m49.992 4.2852c-16.715 0-30.297 13.477-30.297 30.082 0 12.898 7.4492 24.512 14.785 32.914 0.23438 0.26953 0.46875 0.52734 0.70703 0.79297-3.4453 1.1719-6.3281 2.7227-8.5 4.5977-2.6211 2.2578-4.2422 5.0508-4.2422 8.0664 0 4.4844 3.4375 8.2617 8.4258 10.852 4.9922 2.5898 11.707 4.125 19.121 4.125 7.4141 0 14.141-1.5352 19.133-4.125s8.4258-6.3672 8.4258-10.852c0-3.0156-1.6172-5.8086-4.2383-8.0664-2.1719-1.8711-5.0547-3.4297-8.5039-4.5977 0.23438-0.26172 0.47266-0.51953 0.70703-0.78906 7.3359-8.4023 14.785-20.016 14.785-32.914 0-16.605-13.598-30.082-30.312-30.082zm0 2.8477c15.184 0 27.453 12.184 27.453 27.23 0 11.785-6.9844 22.891-14.09 31.027-0.72266 0.82812-1.4336 1.6094-2.1328 2.3594-5.7695 6.168-10.551 9.6016-11.23 10.098-0.76172-0.55859-6.6758-4.7969-13.359-12.457-7.1055-8.1367-14.082-19.242-14.082-31.027 0-15.051 12.258-27.23 27.441-27.23zm0 14.609c-7 0-12.719 5.6602-12.719 12.625 0 6.9648 5.7188 12.637 12.719 12.637s12.719-5.6719 12.719-12.637c0-6.9648-5.7188-12.625-12.719-12.625zm0 2.8555c5.4688 0 9.8633 4.3594 9.8633 9.7656 0 5.4102-4.3945 9.7734-9.8633 9.7734s-9.8633-4.3672-9.8633-9.7734c0-5.4102 4.3945-9.7656 9.8633-9.7656zm12.684 45.789c3.7305 1.1211 6.7266 2.6992 8.7656 4.457 2.1875 1.8867 3.25 3.8945 3.25 5.8945 0 2.9961-2.4219 5.9961-6.8867 8.3125-4.4648 2.3164-10.801 3.8047-17.812 3.8047-7.0117 0-13.348-1.4922-17.812-3.8047-4.4648-2.3164-6.8789-5.3164-6.8789-8.3125 0-2 1.0625-4.0078 3.25-5.8945 2.0391-1.7578 5.0391-3.332 8.7656-4.4531 6.2773 6.5703 11.84 10.559 11.84 10.559h0.003906c0.5 0.35938 1.168 0.35938 1.668 0 0 0 5.5703-3.9883 11.852-10.562z"/>
<text x="0.0" y="117.5" font-size="5.0" font-weight="bold" font-family="Arbeit Regular, Helvetica, Arial-Unicode, Arial, Sans-serif" fill="#000000">Created by Alzam</text><text x="0.0" y="122.5" font-size="5.0" font-weight="bold" font-family="Arbeit Regular, Helvetica, Arial-Unicode, Arial, Sans-serif" fill="#000000">from Noun Project</text></svg>