<svg xmlns="http://www.w3.org/2000/svg" xmlns:xlink="http://www.w3.org/1999/xlink" version="1.1" x="0px" y="0px" viewBox="0 0 64 80" enable-background="new 0 0 64 64" xml:space="preserve"><g><path d="M24.445,15.094c-0.144,0.225-0.256,0.463-0.342,0.747c0.121-0.206,0.225-0.385,0.33-0.563   c0.009,0.004,0.018,0.009,0.026,0.013c-0.011,0.048-0.021,0.097-0.032,0.145c-0.002,0.009-0.004,0.018-0.006,0.028   c-0.297,1.305-0.372,2.651-0.242,3.983l0.273,2.81c0.027,0.276,0.044,0.553,0.062,0.83c0.091,1.367,0.67,2.659,1.755,3.924   c0.031,0.036,0.06,0.087,0.073,0.13c0.381,1.2,0.94,2.168,1.711,2.96c1.159,1.191,2.535,1.82,3.98,1.821h0.003   c1.44,0,2.81-0.625,3.963-1.807c0.739-0.757,1.286-1.683,1.674-2.829c0.043-0.127,0.124-0.268,0.222-0.387   c1.123-1.363,1.673-2.751,1.671-4.225c0-0.102,0-0.205,0.001-0.307l0.021-5.103c-0.025-0.169-0.05-0.341-0.075-0.515   c0.027,0.069,0.053,0.136,0.079,0.201c0.047,0.118,0.091,0.23,0.131,0.344c0.062,0.174,0.116,0.35,0.173,0.526   c0.004-0.033-0.001-0.064-0.007-0.093c-0.115-0.552-0.25-1.098-0.493-1.61c-0.019-0.04-0.038-0.081-0.055-0.121   c-0.001-0.001-0.001-0.001-0.001-0.001c-0.033-0.075-0.064-0.151-0.092-0.227c-0.081-0.219-0.161-0.438-0.241-0.657   c-0.06-0.166-0.121-0.333-0.181-0.499c-0.011-0.03-0.023-0.06-0.033-0.09c0.012-0.007,0.025-0.013,0.037-0.02   c0.205,0.324,0.411,0.649,0.616,0.973c-0.031-0.109-0.071-0.217-0.114-0.323c-0.186-0.452-0.427-0.868-0.789-1.206   c-0.076-0.071-0.145-0.149-0.202-0.234c-0.366-0.545-0.805-1.007-1.407-1.288c-0.018-0.009-0.035-0.017-0.053-0.025   c-0.276-0.123-0.555-0.239-0.833-0.358c-0.07-0.03-0.139-0.06-0.208-0.09c0.141,0.011,0.28,0.027,0.418,0.048   c0.787,0.117,1.529,0.381,2.249,0.722c-0.028-0.029-0.059-0.05-0.091-0.072c-0.865-0.584-1.832-0.877-2.858-0.998   c-0.04-0.004-0.079-0.009-0.119-0.013c-0.344-0.033-0.692-0.045-1.021-0.177c-0.128-0.052-0.267-0.079-0.402-0.115   c-0.156-0.04-0.312-0.079-0.469-0.117c-0.038-0.009-0.075-0.018-0.113-0.028c0.002-0.02,0.001-0.013,0.004-0.033h1.776   c-0.013-0.035-0.03-0.045-0.047-0.048c-0.773-0.111-1.547-0.195-2.329-0.124c-0.268,0.024-0.532,0.036-0.798-0.001   c-0.117-0.016-0.237-0.021-0.355-0.031c-0.001-0.02-0.001-0.014-0.002-0.034c0.58-0.108,1.159-0.216,1.773-0.331   c-0.615,0.015-1.195,0.055-1.768,0.157c-0.32,0.057-0.633,0.159-0.955,0.201c-0.459,0.06-0.924,0.084-1.389,0.123   c0.919-0.438,1.902-0.627,2.904-0.739c-0.188,0.005-0.377-0.003-0.564,0.007c-0.694,0.036-1.382,0.118-2.055,0.302   c-0.557,0.152-1.086,0.365-1.542,0.735c-0.086,0.07-0.191,0.118-0.287,0.176c-0.009-0.014-0.02-0.029-0.029-0.044   c0.209-0.151,0.411-0.315,0.629-0.452c0.223-0.139,0.458-0.261,0.695-0.373c0.23-0.108,0.47-0.195,0.705-0.29   c-0.467,0.118-0.916,0.283-1.349,0.495c-0.858,0.421-1.504,1.124-2.246,1.699c-0.001,0.002-0.003,0.003-0.004,0.005   c-0.048,0.078-0.1,0.153-0.143,0.234c-0.062,0.12-0.11,0.248-0.181,0.361c-0.032,0.052-0.102,0.088-0.162,0.113   c-0.122,0.05-0.252,0.079-0.372,0.132c-0.639,0.287-1.016,0.787-1.176,1.461c0.153-0.306,0.347-0.581,0.63-0.829   c-0.077,0.264-0.14,0.498-0.215,0.729C24.551,14.908,24.503,15.004,24.445,15.094z M25.995,22.313l0.007-0.084   c0.006-0.072,0.013-0.171,0.025-0.235c0.358-0.119,0.569-0.462,0.581-0.945c0.008-0.344,0.011-0.691,0.014-1.027   c0.003-0.375,0.007-0.757,0.018-1.138c0-0.639,0.518-1.152,1.152-1.152c0.011,0,0.023,0,0.034,0.001l0.579,0.017   c0.477-0.039,0.958-0.034,1.437-0.04c0.429-0.006,0.858-0.001,1.287-0.001h1.264c0.46,0,0.921,0.001,1.381-0.001   c0.34-0.001,0.68-0.007,1.02-0.008c0.294-0.002,0.588-0.001,0.882-0.001c0.286-0.001,0.569-0.006,0.849,0.08   c0.325,0.099,0.567,0.29,0.707,0.59c0.09,0.192,0.132,0.407,0.193,0.606c0.003-0.004,0.007-0.008,0.01-0.012   c0.009,0.327,0.009,0.66,0.008,1.003c-0.001,0.298-0.001,0.607,0.005,0.914c0.002,0.082,0.001,0.164,0.001,0.253v0.173   c0,0.344,0.246,0.639,0.584,0.7c0.013,0.064,0.023,0.152,0.026,0.188c0.14,1.317-0.276,2.514-1.308,3.767   c-0.213,0.259-0.379,0.554-0.48,0.853c-0.315,0.933-0.751,1.676-1.332,2.271c-0.868,0.89-1.873,1.361-2.905,1.361h-0.002   c-1.038-0.001-2.048-0.476-2.922-1.375c-0.606-0.623-1.052-1.4-1.361-2.376c-0.073-0.231-0.201-0.46-0.36-0.645   C26.328,24.81,25.885,23.623,25.995,22.313z"/><path d="M48.271,50.829c0.049,0.679-0.003,0.77-0.629,1.006c-1.637,0.616-3.343,0.959-5.065,1.212   c-3.498,0.514-7.022,0.661-11.929,0.703c-1.453-0.088-4.278-0.208-7.094-0.444c-2.241-0.187-4.461-0.56-6.609-1.265   c-0.236-0.077-0.469-0.164-0.701-0.253c-0.488-0.189-0.552-0.279-0.525-0.808l0.847-8.293c0.543-4.489,3.147-6.978,7.482-7.872   c0.985-0.203,2.309-1.685,2.873-2.892c0.24,0.209,0.486,0.402,0.738,0.579l-0.438-0.355c1.415,1.141,3.047,1.741,4.777,1.746   c1.731-0.005,3.362-0.605,4.777-1.746l0.3-0.224c0.564,1.206,1.888,2.688,2.873,2.892c4.335,0.894,6.939,3.383,7.482,7.872   L48.271,50.829z"/><path d="M48.271,50.829c0.049,0.679-0.003,0.77-0.629,1.006c-1.637,0.616-3.343,0.959-5.065,1.212   c-3.498,0.514-7.022,0.661-11.929,0.703c-1.453-0.088-4.278-0.208-7.094-0.444c-2.241-0.187-4.461-0.56-6.609-1.265   c-0.236-0.077-0.469-0.164-0.701-0.253c-0.488-0.189-0.552-0.279-0.525-0.808l0.847-8.293c0.543-4.489,3.147-6.978,7.482-7.872   c0.985-0.203,2.309-1.685,2.873-2.892c0.24,0.209,0.486,0.402,0.738,0.579l-0.438-0.355c1.415,1.141,3.047,1.741,4.777,1.746   c1.731-0.005,3.362-0.605,4.777-1.746l0.3-0.224c0.564,1.206,1.888,2.688,2.873,2.892c4.335,0.894,6.939,3.383,7.482,7.872   L48.271,50.829z"/><path d="M42.308,14.387c-0.126,0.196-0.223,0.404-0.298,0.651c0.105-0.179,0.196-0.335,0.287-0.49   c0.008,0.004,0.015,0.008,0.022,0.012c-0.009,0.042-0.018,0.084-0.028,0.127c-0.002,0.008-0.004,0.016-0.006,0.024   c-0.258,1.137-0.324,2.309-0.211,3.47l0.238,2.448c0.023,0.24,0.038,0.482,0.054,0.723c0.08,1.191,0.584,2.316,1.528,3.418   c0.027,0.031,0.052,0.076,0.064,0.114c0.332,1.045,0.819,1.889,1.49,2.579c1.009,1.037,2.208,1.586,3.467,1.586h0.002   c1.254,0,2.448-0.544,3.452-1.574c0.643-0.659,1.12-1.466,1.458-2.465c0.037-0.111,0.108-0.234,0.193-0.337   c0.978-1.187,1.457-2.396,1.455-3.68c0-0.089,0-0.178,0.001-0.267l0.019-4.445c-0.022-0.148-0.044-0.297-0.065-0.449   c0.024,0.06,0.046,0.118,0.069,0.175c0.041,0.103,0.079,0.201,0.114,0.3c0.054,0.151,0.101,0.305,0.151,0.458   c0.004-0.029-0.001-0.055-0.006-0.081c-0.1-0.481-0.218-0.956-0.43-1.403c-0.016-0.035-0.033-0.07-0.048-0.105   c-0.001-0.001-0.001-0.001-0.001-0.001c-0.029-0.065-0.056-0.131-0.08-0.197c-0.07-0.19-0.14-0.381-0.21-0.572   c-0.053-0.145-0.105-0.29-0.158-0.435c-0.01-0.026-0.02-0.052-0.029-0.078c0.01-0.006,0.021-0.012,0.032-0.018   c0.179,0.283,0.358,0.565,0.537,0.848c-0.027-0.095-0.061-0.189-0.099-0.281c-0.162-0.394-0.372-0.756-0.687-1.05   c-0.066-0.061-0.126-0.129-0.176-0.204c-0.319-0.474-0.702-0.877-1.225-1.122c-0.015-0.008-0.031-0.015-0.046-0.021   c-0.241-0.107-0.484-0.208-0.726-0.312c-0.061-0.026-0.121-0.052-0.182-0.078c0.123,0.01,0.244,0.024,0.364,0.042   c0.685,0.102,1.332,0.332,1.959,0.629c-0.025-0.025-0.052-0.044-0.079-0.063c-0.754-0.509-1.596-0.764-2.49-0.869   c-0.035-0.004-0.069-0.008-0.104-0.011c-0.3-0.029-0.603-0.039-0.89-0.154c-0.112-0.045-0.233-0.069-0.351-0.1   c-0.136-0.035-0.272-0.069-0.408-0.102c-0.033-0.008-0.065-0.016-0.098-0.024c0.002-0.017,0.001-0.012,0.003-0.029h1.547   c-0.012-0.03-0.026-0.039-0.041-0.042c-0.673-0.097-1.348-0.17-2.029-0.108c-0.233,0.021-0.464,0.031-0.696-0.001   c-0.102-0.014-0.206-0.018-0.31-0.027c-0.001-0.017-0.001-0.012-0.001-0.03c0.505-0.094,1.01-0.188,1.544-0.288   c-0.536,0.013-1.041,0.048-1.54,0.137c-0.279,0.049-0.551,0.139-0.832,0.175c-0.4,0.052-0.805,0.073-1.21,0.107   c0.8-0.381,1.657-0.546,2.529-0.643c-0.164,0.004-0.328-0.003-0.491,0.006c-0.604,0.031-1.204,0.103-1.79,0.263   c-0.485,0.133-0.946,0.318-1.343,0.64c-0.075,0.061-0.166,0.103-0.25,0.154c-0.008-0.013-0.017-0.025-0.025-0.038   c0.182-0.132,0.358-0.274,0.548-0.393c0.194-0.121,0.399-0.228,0.606-0.325c0.2-0.094,0.409-0.17,0.614-0.253   c-0.406,0.103-0.798,0.246-1.175,0.431c-0.748,0.367-1.31,0.979-1.956,1.48c-0.001,0.001-0.003,0.003-0.004,0.004   c-0.042,0.068-0.087,0.133-0.125,0.204c-0.054,0.104-0.096,0.216-0.158,0.315c-0.028,0.045-0.089,0.076-0.141,0.098   c-0.106,0.043-0.219,0.069-0.324,0.115c-0.557,0.25-0.885,0.686-1.024,1.273c0.133-0.267,0.302-0.506,0.549-0.722   c-0.067,0.23-0.122,0.434-0.187,0.635C42.4,14.225,42.358,14.309,42.308,14.387z M43.658,20.676l0.006-0.073   c0.005-0.063,0.012-0.149,0.021-0.205c0.312-0.104,0.495-0.402,0.506-0.823c0.007-0.3,0.009-0.602,0.012-0.895   c0.003-0.326,0.006-0.659,0.015-0.991c0-0.556,0.451-1.004,1.004-1.004c0.01,0,0.02,0,0.03,0.001l0.504,0.015   c0.415-0.034,0.834-0.03,1.252-0.035c0.374-0.005,0.748-0.001,1.121-0.001h1.101c0.401,0,0.802,0.001,1.203-0.001   c0.296-0.001,0.592-0.006,0.889-0.007c0.256-0.002,0.512-0.001,0.769-0.001c0.249-0.001,0.495-0.005,0.74,0.07   c0.283,0.086,0.494,0.253,0.616,0.514c0.078,0.167,0.115,0.355,0.168,0.528c0.003-0.003,0.006-0.007,0.009-0.01   c0.008,0.285,0.008,0.575,0.007,0.874c-0.001,0.26-0.001,0.529,0.004,0.796c0.002,0.071,0.001,0.143,0.001,0.221v0.15   c0,0.3,0.214,0.557,0.509,0.61c0.012,0.055,0.02,0.133,0.023,0.164c0.122,1.147-0.24,2.19-1.139,3.281   c-0.185,0.225-0.33,0.482-0.419,0.743c-0.275,0.812-0.654,1.46-1.16,1.979c-0.756,0.776-1.631,1.186-2.53,1.186h-0.002   c-0.904-0.001-1.784-0.415-2.545-1.197c-0.528-0.543-0.916-1.22-1.186-2.07c-0.064-0.201-0.175-0.401-0.313-0.562   C43.948,22.851,43.562,21.817,43.658,20.676z"/><path d="M8.531,14.387c-0.126,0.196-0.223,0.404-0.298,0.651c0.105-0.179,0.196-0.335,0.287-0.49   c0.008,0.004,0.015,0.008,0.022,0.012c-0.009,0.042-0.018,0.084-0.028,0.127c-0.002,0.008-0.004,0.016-0.006,0.024   c-0.258,1.137-0.324,2.309-0.211,3.47l0.238,2.448c0.023,0.24,0.038,0.482,0.054,0.723c0.08,1.191,0.584,2.316,1.528,3.418   c0.027,0.031,0.052,0.076,0.064,0.114c0.332,1.045,0.819,1.889,1.49,2.579c1.009,1.037,2.208,1.586,3.467,1.586h0.002   c1.254,0,2.448-0.544,3.452-1.574c0.643-0.659,1.12-1.466,1.458-2.465c0.037-0.111,0.108-0.234,0.193-0.337   c0.978-1.187,1.457-2.396,1.455-3.68c0-0.089,0-0.178,0.001-0.267l0.019-4.445c-0.022-0.148-0.044-0.297-0.065-0.449   c0.024,0.06,0.046,0.118,0.069,0.175c0.041,0.103,0.079,0.201,0.114,0.3c0.054,0.151,0.101,0.305,0.151,0.458   c0.004-0.029-0.001-0.055-0.006-0.081c-0.1-0.481-0.218-0.956-0.43-1.403c-0.016-0.035-0.033-0.07-0.048-0.105   c-0.001-0.001-0.001-0.001-0.001-0.001c-0.029-0.065-0.056-0.131-0.08-0.197c-0.07-0.19-0.14-0.381-0.21-0.572   c-0.053-0.145-0.105-0.29-0.158-0.435c-0.01-0.026-0.02-0.052-0.029-0.078c0.01-0.006,0.021-0.012,0.032-0.018   c0.179,0.283,0.358,0.565,0.537,0.848c-0.027-0.095-0.061-0.189-0.099-0.281c-0.162-0.394-0.372-0.756-0.687-1.05   c-0.066-0.061-0.126-0.129-0.176-0.204c-0.319-0.474-0.702-0.877-1.225-1.122c-0.015-0.008-0.031-0.015-0.046-0.021   c-0.241-0.107-0.484-0.208-0.726-0.312c-0.061-0.026-0.121-0.052-0.182-0.078c0.123,0.01,0.244,0.024,0.364,0.042   c0.685,0.102,1.332,0.332,1.959,0.629c-0.025-0.025-0.052-0.044-0.079-0.063c-0.754-0.509-1.596-0.764-2.49-0.869   c-0.035-0.004-0.069-0.008-0.104-0.011c-0.3-0.029-0.603-0.039-0.89-0.154c-0.112-0.045-0.233-0.069-0.351-0.1   c-0.136-0.035-0.272-0.069-0.408-0.102c-0.033-0.008-0.065-0.016-0.098-0.024c0.002-0.017,0.001-0.012,0.003-0.029h1.547   c-0.012-0.03-0.026-0.039-0.041-0.042c-0.673-0.097-1.348-0.17-2.029-0.108c-0.233,0.021-0.464,0.031-0.696-0.001   c-0.102-0.014-0.206-0.018-0.31-0.027c-0.001-0.017-0.001-0.012-0.001-0.03c0.505-0.094,1.01-0.188,1.544-0.288   c-0.536,0.013-1.041,0.048-1.54,0.137c-0.279,0.049-0.551,0.139-0.832,0.175c-0.4,0.052-0.805,0.073-1.21,0.107   c0.8-0.381,1.657-0.546,2.529-0.643c-0.164,0.004-0.328-0.003-0.491,0.006c-0.604,0.031-1.204,0.103-1.79,0.263   c-0.485,0.133-0.946,0.318-1.343,0.64c-0.075,0.061-0.166,0.103-0.25,0.154c-0.008-0.013-0.017-0.025-0.025-0.038   c0.182-0.132,0.358-0.274,0.548-0.393c0.194-0.121,0.399-0.228,0.606-0.325c0.2-0.094,0.409-0.17,0.614-0.253   c-0.406,0.103-0.798,0.246-1.175,0.431c-0.748,0.367-1.31,0.979-1.956,1.48c-0.001,0.001-0.003,0.003-0.004,0.004   c-0.042,0.068-0.087,0.133-0.125,0.204c-0.054,0.104-0.096,0.216-0.158,0.315c-0.028,0.045-0.089,0.076-0.141,0.098   c-0.106,0.043-0.219,0.069-0.324,0.115c-0.557,0.25-0.885,0.686-1.024,1.273c0.133-0.267,0.302-0.506,0.549-0.722   c-0.067,0.23-0.122,0.434-0.187,0.635C8.623,14.225,8.581,14.309,8.531,14.387z M9.881,20.676l0.006-0.073   c0.005-0.063,0.012-0.149,0.021-0.205c0.312-0.104,0.495-0.402,0.506-0.823c0.007-0.3,0.009-0.602,0.012-0.895   c0.003-0.326,0.006-0.659,0.015-0.991c0-0.556,0.451-1.004,1.004-1.004c0.01,0,0.02,0,0.03,0.001l0.504,0.015   c0.415-0.034,0.834-0.03,1.252-0.035c0.374-0.005,0.748-0.001,1.121-0.001h1.101c0.401,0,0.802,0.001,1.203-0.001   c0.296-0.001,0.592-0.006,0.889-0.007c0.256-0.002,0.512-0.001,0.769-0.001c0.249-0.001,0.495-0.005,0.74,0.07   c0.283,0.086,0.494,0.253,0.616,0.514c0.078,0.167,0.115,0.355,0.168,0.528c0.003-0.003,0.006-0.007,0.009-0.01   c0.008,0.285,0.008,0.575,0.007,0.874c-0.001,0.26-0.001,0.529,0.004,0.796c0.002,0.071,0.001,0.143,0.001,0.221v0.15   c0,0.3,0.214,0.557,0.509,0.61c0.012,0.055,0.02,0.133,0.023,0.164c0.122,1.147-0.24,2.19-1.139,3.281   c-0.185,0.225-0.33,0.482-0.419,0.743c-0.275,0.812-0.654,1.46-1.16,1.979c-0.756,0.776-1.631,1.186-2.53,1.186h-0.002   c-0.904-0.001-1.784-0.415-2.545-1.197c-0.528-0.543-0.916-1.22-1.186-2.07c-0.064-0.201-0.175-0.401-0.313-0.562   C10.171,22.851,9.785,21.817,9.881,20.676z"/><path d="M15.075,42.535c0.61-5.046,3.527-8.128,8.672-9.188c0.208-0.06,0.604-0.394,0.993-0.839   c-0.791-0.416-1.689-0.732-2.702-0.941c-0.858-0.177-2.011-1.468-2.503-2.519l-0.262,0.195c-1.233,0.994-2.654,1.517-4.162,1.521   c-1.508-0.004-2.929-0.527-4.162-1.521l0.382,0.309c-0.22-0.154-0.435-0.322-0.643-0.504c-0.491,1.051-1.645,2.342-2.503,2.519   c-3.776,0.779-6.045,2.947-6.518,6.857L0.93,45.648c-0.024,0.461,0.032,0.54,0.457,0.704c0.202,0.078,0.405,0.153,0.61,0.22   c1.871,0.615,3.805,0.94,5.757,1.102c2.453,0.205,4.914,0.31,6.18,0.386c0.197-0.002,0.386-0.004,0.578-0.006L15.075,42.535z"/><path d="M63.063,45.516l-0.73-7.092c-0.473-3.91-2.742-6.079-6.518-6.857c-0.858-0.177-2.011-1.468-2.503-2.519l-0.262,0.195   c-1.233,0.994-2.654,1.517-4.162,1.521c-1.508-0.004-2.929-0.527-4.162-1.521l0.382,0.309c-0.22-0.154-0.435-0.322-0.643-0.504   c-0.491,1.051-1.645,2.342-2.503,2.519c-1.013,0.209-1.911,0.525-2.702,0.941c0.39,0.446,0.789,0.78,1.002,0.841   c5.136,1.059,8.052,4.141,8.659,9.159l0.569,5.529c3.376-0.058,6.006-0.206,8.611-0.589c1.5-0.221,2.986-0.519,4.412-1.056   C63.06,46.186,63.105,46.107,63.063,45.516z"/></g><text x="0" y="79" fill="#000000" font-size="5px" font-weight="bold" font-family="'Helvetica Neue', Helvetica, Arial-Unicode, Arial, Sans-serif">Created by Arafat Uddin</text><text x="0" y="84" fill="#000000" font-size="5px" font-weight="bold" font-family="'Helvetica Neue', Helvetica, Arial-Unicode, Arial, Sans-serif">from the Noun Project</text></svg>